<svg width="25" height="24" viewBox="0 0 25 24" fill="none" xmlns="http://www.w3.org/2000/svg">
<g clip-path="url(#clip0_350_9453)">
<mask id="mask0_350_9453" style="mask-type:luminance" maskUnits="userSpaceOnUse" x="0" y="0" width="25" height="24">
<path d="M0.5 0H24.5V24H0.5V0Z" fill="white"/>
</mask>
<g mask="url(#mask0_350_9453)">
<path d="M17.5 12H12.5V17H17.5V12ZM16.5 1V3H8.5V1H6.5V3H5.5C4.39 3 3.51 3.9 3.51 5L3.5 19C3.5 20.1 4.39 21 5.5 21H19.5C20.6 21 21.5 20.1 21.5 19V5C21.5 3.9 20.6 3 19.5 3H18.5V1H16.5ZM19.5 19H5.5V8H19.5V19Z" fill="black"/>
</g>
</g>
<defs>
<clipPath id="clip0_350_9453">
<rect width="24" height="24" fill="white" transform="translate(0.5)"/>
</clipPath>
</defs>
</svg>
