<svg width="24" height="24" viewBox="0 0 24 24" fill="none" xmlns="http://www.w3.org/2000/svg">
<path d="M12 19.56C12.3509 19.5598 12.6915 19.4412 12.9668 19.2234C13.242 19.0057 13.4358 18.7015 13.5168 18.36H10.4832C10.5641 18.7015 10.7579 19.0057 11.0331 19.2234C11.3084 19.4412 11.649 19.5598 12 19.56Z" fill="black"/>
<path d="M17.5199 15.96H17.1599V10.5072C17.1795 9.21854 16.7264 7.96734 15.8862 6.99005C15.046 6.01277 13.8769 5.37711 12.5999 5.2032V5.04C12.5999 4.88087 12.5367 4.72826 12.4242 4.61574C12.3116 4.50322 12.159 4.44 11.9999 4.44C11.8408 4.44 11.6882 4.50322 11.5756 4.61574C11.4631 4.72826 11.3999 4.88087 11.3999 5.04V5.1984C10.3001 5.32199 9.27056 5.80054 8.46709 6.5616C7.95394 7.04402 7.54487 7.62629 7.26504 8.27262C6.98521 8.91895 6.84053 9.61569 6.83989 10.32V15.96H6.47989C6.25711 15.96 6.04345 16.0485 5.88592 16.206C5.72839 16.3636 5.63989 16.5772 5.63989 16.8C5.63989 17.0228 5.72839 17.2364 5.88592 17.394C6.04345 17.5515 6.25711 17.64 6.47989 17.64H17.5199C17.7427 17.64 17.9563 17.5515 18.1139 17.394C18.2714 17.2364 18.3599 17.0228 18.3599 16.8C18.3599 16.5772 18.2714 16.3636 18.1139 16.206C17.9563 16.0485 17.7427 15.96 17.5199 15.96Z" fill="black"/>
</svg>
