<svg width="32" height="32" viewBox="0 0 32 32" fill="none" xmlns="http://www.w3.org/2000/svg">
<g clip-path="url(#clip0_173_9308)">
<path d="M23.75 2.5H22.5V1.25C22.5 0.559625 21.9404 0 21.25 0C20.5596 0 20 0.559625 20 1.25V2.5H10V1.25C10 0.559625 9.44037 0 8.75 0C8.05963 0 7.5 0.559625 7.5 1.25V2.5H6.25C2.80375 2.5 0 5.30375 0 8.75V23.75C0 27.1962 2.80375 30 6.25 30H12.2939C12.9843 30 13.5439 29.4404 13.5439 28.75C13.5439 28.0596 12.9843 27.5 12.2939 27.5H6.25C4.18225 27.5 2.5 25.8177 2.5 23.75V12.5H28.75C29.4404 12.5 30 11.9404 30 11.25V8.75C30 5.30375 27.1963 2.5 23.75 2.5ZM27.5 10H2.5V8.75C2.5 6.68225 4.18225 5 6.25 5H7.5V6.25C7.5 6.94037 8.05963 7.5 8.75 7.5C9.44037 7.5 10 6.94037 10 6.25V5H20V6.25C20 6.94037 20.5596 7.5 21.25 7.5C21.9404 7.5 22.5 6.94037 22.5 6.25V5H23.75C25.8177 5 27.5 6.68225 27.5 8.75V10Z" fill="black"/>
<path d="M6.25 17.5C6.94036 17.5 7.5 16.9404 7.5 16.25C7.5 15.5596 6.94036 15 6.25 15C5.55964 15 5 15.5596 5 16.25C5 16.9404 5.55964 17.5 6.25 17.5Z" fill="black"/>
<path d="M11.25 17.5C11.9404 17.5 12.5 16.9404 12.5 16.25C12.5 15.5596 11.9404 15 11.25 15C10.5596 15 10 15.5596 10 16.25C10 16.9404 10.5596 17.5 11.25 17.5Z" fill="black"/>
<path d="M6.25 22.5C6.94036 22.5 7.5 21.9404 7.5 21.25C7.5 20.5596 6.94036 20 6.25 20C5.55964 20 5 20.5596 5 21.25C5 21.9404 5.55964 22.5 6.25 22.5Z" fill="black"/>
<path d="M11.25 22.5C11.9404 22.5 12.5 21.9404 12.5 21.25C12.5 20.5596 11.9404 20 11.25 20C10.5596 20 10 20.5596 10 21.25C10 21.9404 10.5596 22.5 11.25 22.5Z" fill="black"/>
<path d="M23.25 14.5C18.4253 14.5 14.5 18.4253 14.5 23.25C14.5 28.0747 18.4253 32 23.25 32C28.0747 32 32 28.0747 32 23.25C32 18.4253 28.0747 14.5 23.25 14.5ZM23.25 29.5C19.8037 29.5 17 26.6962 17 23.25C17 19.8038 19.8037 17 23.25 17C26.6963 17 29.5 19.8038 29.5 23.25C29.5 26.6962 26.6963 29.5 23.25 29.5Z" fill="black"/>
<path d="M25.75 22H24.5V20.75C24.5 20.0596 23.9404 19.5 23.25 19.5C22.5596 19.5 22 20.0596 22 20.75V23.25C22 23.9404 22.5596 24.5 23.25 24.5H25.75C26.4404 24.5 27 23.9404 27 23.25C27 22.5596 26.4404 22 25.75 22Z" fill="black"/>
</g>
<defs>
<clipPath id="clip0_173_9308">
<rect width="32" height="32" fill="white"/>
</clipPath>
</defs>
</svg>
