<svg width="24" height="24" viewBox="0 0 24 24" fill="none" xmlns="http://www.w3.org/2000/svg">
<path d="M17 6.75C17.1989 6.74995 17.3896 6.67091 17.5303 6.53027C17.6709 6.38963 17.7499 6.1989 17.75 6V3C17.75 2.80109 17.671 2.61032 17.5303 2.46967C17.3897 2.32902 17.1989 2.25 17 2.25C16.8011 2.25 16.6103 2.32902 16.4697 2.46967C16.329 2.61032 16.25 2.80109 16.25 3V6C16.2501 6.1989 16.3291 6.38963 16.4697 6.53027C16.6104 6.67091 16.8011 6.74995 17 6.75Z" fill="black"/>
<path d="M12 6.75C12.1989 6.74995 12.3896 6.67091 12.5303 6.53027C12.6709 6.38963 12.7499 6.1989 12.75 6V3C12.75 2.80109 12.671 2.61032 12.5303 2.46967C12.3897 2.32902 12.1989 2.25 12 2.25C11.8011 2.25 11.6103 2.32902 11.4697 2.46967C11.329 2.61032 11.25 2.80109 11.25 3V6C11.2501 6.1989 11.3291 6.38963 11.4697 6.53027C11.6104 6.67091 11.8011 6.74995 12 6.75Z" fill="black"/>
<path d="M7 6.75C7.1989 6.74995 7.38963 6.67091 7.53027 6.53027C7.67091 6.38963 7.74995 6.1989 7.75 6V3C7.75 2.80109 7.67098 2.61032 7.53033 2.46967C7.38968 2.32902 7.19891 2.25 7 2.25C6.80109 2.25 6.61032 2.32902 6.46967 2.46967C6.32902 2.61032 6.25 2.80109 6.25 3V6C6.25005 6.1989 6.32909 6.38963 6.46973 6.53027C6.61037 6.67091 6.8011 6.74995 7 6.75Z" fill="black"/>
<path d="M4 3.25H20C20.3612 3.24979 20.7189 3.32078 21.0526 3.45891C21.3864 3.59704 21.6896 3.79959 21.945 4.05499C22.2004 4.3104 22.403 4.61364 22.5411 4.94738C22.6792 5.28111 22.7502 5.63881 22.75 6V19C22.7502 19.3612 22.6792 19.7189 22.5411 20.0526C22.403 20.3864 22.2004 20.6896 21.945 20.945C21.6896 21.2004 21.3864 21.403 21.0526 21.5411C20.7189 21.6792 20.3612 21.7502 20 21.75H4C3.63881 21.7502 3.28112 21.6792 2.94738 21.5411C2.61364 21.403 2.3104 21.2004 2.055 20.945C1.7996 20.6896 1.59705 20.3864 1.45892 20.0526C1.32079 19.7189 1.24979 19.3612 1.25 19V6C1.24979 5.63881 1.32078 5.28111 1.45891 4.94738C1.59703 4.61364 1.79959 4.3104 2.05499 4.05499C2.31039 3.79959 2.61363 3.59704 2.94737 3.45891C3.28111 3.32078 3.6388 3.24979 4 3.25ZM8.96973 16.9697C8.89968 17.0393 8.84404 17.122 8.80602 17.2131C8.76799 17.3042 8.74833 17.4019 8.74815 17.5006C8.74797 17.5993 8.76728 17.6971 8.80497 17.7883C8.84266 17.8795 8.89799 17.9624 8.96779 18.0322C9.03759 18.102 9.12048 18.1573 9.21172 18.195C9.30295 18.2327 9.40072 18.252 9.49943 18.2519C9.59814 18.2517 9.69585 18.232 9.78694 18.194C9.87803 18.156 9.96072 18.1003 10.0303 18.0303L12 16.0606L13.9697 18.0303C14.1105 18.1701 14.301 18.2484 14.4994 18.248C14.6979 18.2476 14.888 18.1686 15.0283 18.0283C15.1686 17.888 15.2476 17.6979 15.248 17.4994C15.2483 17.301 15.1701 17.1105 15.0303 16.9697L13.0605 15L15.0303 13.0303C15.1701 12.8895 15.2483 12.699 15.248 12.5006C15.2476 12.3021 15.1686 12.112 15.0283 11.9717C14.888 11.8314 14.6979 11.7524 14.4994 11.752C14.301 11.7517 14.1105 11.8299 13.9697 11.9697L12 13.9395L10.0303 11.9697C9.88946 11.8299 9.69898 11.7517 9.50056 11.752C9.30215 11.7524 9.11196 11.8314 8.97166 11.9717C8.83135 12.112 8.75237 12.3021 8.75201 12.5006C8.75165 12.699 8.82994 12.8895 8.96973 13.0303L10.9394 15L8.96973 16.9697ZM2.75 8.25H21.25V6C21.2499 5.66852 21.1181 5.35065 20.8837 5.11626C20.6493 4.88187 20.3315 4.75013 20 4.75H4C3.66852 4.75013 3.35065 4.88187 3.11626 5.11626C2.88187 5.35065 2.75013 5.66852 2.75 6V8.25Z" fill="black"/>
</svg>
