<svg width="24" height="24" viewBox="0 0 24 24" fill="none" xmlns="http://www.w3.org/2000/svg">
<path fill-rule="evenodd" clip-rule="evenodd" d="M18.9995 17.5864C19.39 17.977 19.39 18.6101 18.9994 19.0006C18.6088 19.3911 17.9757 19.3911 17.5852 19.0005L11.9999 13.4143L6.41424 19C6.02374 19.3905 5.39054 19.3905 5.00004 19C4.60954 18.6095 4.60954 17.9763 5.00004 17.5858L10.5858 12L5.00044 6.41359C4.61004 6.02303 4.61004 5.38987 5.00064 4.99938C5.39114 4.60888 6.02434 4.60894 6.41484 4.9995L12.0001 10.5858L17.5859 4.99998C17.9764 4.60946 18.6096 4.60946 19.0001 4.99998C19.3906 5.39051 19.3906 6.02367 19.0001 6.4142L13.4141 12.0001L18.9995 17.5864Z" fill="black"/>
</svg>
