<svg width="24" height="24" viewBox="0 0 24 24" fill="none" xmlns="http://www.w3.org/2000/svg">
<path d="M19 3.1V2C19 1.73478 18.8946 1.48043 18.7071 1.29289C18.5196 1.10536 18.2652 1 18 1C17.7348 1 17.4804 1.10536 17.2929 1.29289C17.1054 1.48043 17 1.73478 17 2V3H13V2C13 1.73478 12.8946 1.48043 12.7071 1.29289C12.5196 1.10536 12.2652 1 12 1C11.7348 1 11.4804 1.10536 11.2929 1.29289C11.1054 1.48043 11 1.73478 11 2V3H7V2C7 1.73478 6.89464 1.48043 6.70711 1.29289C6.51957 1.10536 6.26522 1 6 1C5.73478 1 5.48043 1.10536 5.29289 1.29289C5.10536 1.48043 5 1.73478 5 2V3.1C3.87064 3.33053 2.8556 3.94418 2.12669 4.8371C1.39778 5.73001 0.999765 6.84735 1 8V18C1 18.6566 1.12933 19.3068 1.3806 19.9134C1.63188 20.52 2.00017 21.0712 2.46447 21.5355C3.40215 22.4732 4.67392 23 6 23H18C18.6566 23 19.3068 22.8707 19.9134 22.6194C20.52 22.3681 21.0712 21.9998 21.5355 21.5355C21.9998 21.0712 22.3681 20.52 22.6194 19.9134C22.8707 19.3068 23 18.6566 23 18V8C23.0002 6.84735 22.6022 5.73001 21.8733 4.8371C21.1444 3.94418 20.1294 3.33053 19 3.1ZM15.82 12.83L12.12 16.47C11.9331 16.6532 11.6818 16.7559 11.42 16.7559C11.1582 16.7559 10.9069 16.6532 10.72 16.47L8.72 14.53C8.53037 14.3443 8.42226 14.091 8.41944 13.8256C8.41663 13.5602 8.51935 13.3046 8.705 13.115C8.89065 12.9254 9.14403 12.8173 9.40939 12.8144C9.67476 12.8116 9.93037 12.9144 10.12 13.1L11.39 14.36L14.39 11.41C14.4804 11.306 14.5913 11.2218 14.7158 11.1627C14.8403 11.1036 14.9756 11.0709 15.1134 11.0666C15.2511 11.0622 15.3882 11.0864 15.5161 11.1376C15.6441 11.1888 15.7601 11.2659 15.8568 11.364C15.9535 11.4621 16.029 11.5792 16.0783 11.7078C16.1277 11.8365 16.1499 11.9739 16.1437 12.1116C16.1374 12.2492 16.1027 12.3841 16.0419 12.5077C15.981 12.6314 15.8953 12.7411 15.79 12.83H15.82Z" fill="black"/>
</svg>
