<svg width="16" height="16" viewBox="0 0 16 16" fill="none" xmlns="http://www.w3.org/2000/svg">
<path d="M12.6866 5.6895C12.6897 5.55097 12.6495 5.41492 12.5716 5.30029C12.4938 5.18565 12.3821 5.09812 12.2522 5.04985C12.1223 5.00159 11.9807 4.995 11.8468 5.031C11.713 5.06699 11.5938 5.14378 11.5057 5.2507L8.01087 9.33013L4.51731 5.2507C4.46296 5.17674 4.39395 5.1148 4.31454 5.06876C4.23514 5.02272 4.14706 4.99357 4.05587 4.98314C3.96468 4.97271 3.87234 4.98122 3.78459 5.00813C3.69683 5.03505 3.61556 5.07979 3.5459 5.13956C3.47625 5.19933 3.41974 5.27284 3.37981 5.35549C3.33988 5.43813 3.31745 5.52813 3.31391 5.61985C3.31037 5.71157 3.32576 5.80303 3.3592 5.8885C3.39265 5.97398 3.44338 6.05163 3.50823 6.11659L7.50437 10.7872C7.56696 10.8605 7.64465 10.9194 7.7322 10.9598C7.81976 11.0002 7.91506 11.0211 8.01149 11.0211C8.10791 11.0211 8.20321 11.0002 8.29077 10.9598C8.37833 10.9194 8.45609 10.8605 8.51868 10.7872L12.5187 6.11659C12.6235 5.9986 12.6829 5.84727 12.6866 5.6895Z" fill="black"/>
</svg>
