<svg width="18" height="18" viewBox="0 0 18 18" fill="none" xmlns="http://www.w3.org/2000/svg">
<path d="M16.4306 6.66C16.1024 6.61232 15.7892 6.49122 15.5142 6.30569C15.2393 6.12017 15.0098 5.87502 14.8427 5.58849C14.6757 5.30196 14.5754 4.98143 14.5494 4.65078C14.5234 4.32013 14.5723 3.98787 14.6925 3.67875C14.7689 3.47666 14.7802 3.25572 14.7247 3.04691C14.6692 2.8381 14.5498 2.65189 14.3831 2.51438C13.6474 1.89656 12.81 1.41123 11.9081 1.08C11.7028 1.00372 11.4786 0.994185 11.2675 1.05277C11.0564 1.11135 10.8692 1.23505 10.7325 1.40625C10.5268 1.66931 10.2639 1.88206 9.96369 2.02838C9.66351 2.1747 9.33395 2.25075 9.00001 2.25075C8.66607 2.25075 8.33651 2.1747 8.03633 2.02838C7.73615 1.88206 7.47323 1.66931 7.26751 1.40625C7.13084 1.23505 6.94362 1.11135 6.73253 1.05277C6.52144 0.994185 6.29724 1.00372 6.09189 1.08C5.2592 1.3858 4.48066 1.82254 3.78564 2.37375C3.61044 2.51244 3.48425 2.70358 3.42555 2.91918C3.36684 3.13478 3.3787 3.36351 3.45939 3.57188C3.58919 3.88918 3.64282 4.23248 3.61597 4.57425C3.58913 4.91602 3.48256 5.24674 3.30481 5.53989C3.12707 5.83303 2.88309 6.08044 2.59246 6.26226C2.30182 6.44408 1.97262 6.55526 1.63126 6.58688C1.40964 6.61057 1.20148 6.7048 1.03744 6.85568C0.87339 7.00656 0.762121 7.20613 0.720012 7.425C0.615273 7.94346 0.562512 8.47107 0.562512 9C0.561742 9.44281 0.597488 9.88494 0.669387 10.3219C0.705171 10.5478 0.81437 10.7556 0.980101 10.9132C1.14583 11.0708 1.35887 11.1694 1.58626 11.1937C1.93512 11.2265 2.27106 11.3423 2.56597 11.5315C2.86088 11.7208 3.10617 11.9779 3.28132 12.2813C3.45646 12.5848 3.55637 12.9258 3.57267 13.2758C3.58897 13.6259 3.52119 13.9747 3.37501 14.2931C3.27935 14.5003 3.25562 14.7334 3.30759 14.9556C3.35956 15.1777 3.48426 15.3762 3.66189 15.5194C4.3932 16.126 5.22258 16.6034 6.11439 16.9312C6.22843 16.9707 6.34808 16.9916 6.46876 16.9931C6.63423 16.9928 6.7972 16.9527 6.94401 16.8764C7.09082 16.8001 7.21719 16.6896 7.31251 16.5544C7.51299 16.2623 7.78174 16.0235 8.09542 15.8588C8.4091 15.6942 8.75823 15.6085 9.11251 15.6094C9.45578 15.6098 9.7942 15.6904 10.1008 15.8447C10.4075 15.999 10.6739 16.2227 10.8788 16.4981C11.0151 16.6813 11.2081 16.8143 11.4279 16.8764C11.6476 16.9385 11.8818 16.9261 12.0938 16.8412C12.9092 16.5131 13.6684 16.0595 14.3438 15.4969C14.5134 15.3566 14.6342 15.1661 14.6888 14.9529C14.7434 14.7396 14.7289 14.5145 14.6475 14.31C14.5152 13.9968 14.4575 13.6571 14.479 13.3178C14.5005 12.9785 14.6005 12.6488 14.7713 12.3547C14.942 12.0607 15.1788 11.8104 15.4629 11.6236C15.7469 11.4367 16.0705 11.3185 16.4081 11.2781C16.6271 11.2479 16.8306 11.1487 16.9894 10.9949C17.1482 10.8412 17.2539 10.6409 17.2913 10.4231C17.3816 9.95395 17.4305 9.47774 17.4375 9C17.4376 8.49608 17.3905 7.99326 17.2969 7.49813C17.2589 7.28511 17.1548 7.08947 16.9993 6.93902C16.8438 6.78856 16.6448 6.69093 16.4306 6.66ZM11.8125 9C11.8125 9.55626 11.6476 10.1 11.3385 10.5625C11.0295 11.0251 10.5902 11.3855 10.0763 11.5984C9.56239 11.8113 8.99689 11.867 8.45132 11.7585C7.90575 11.6499 7.40461 11.3821 7.01127 10.9887C6.61794 10.5954 6.35007 10.0943 6.24155 9.54869C6.13303 9.00312 6.18873 8.43762 6.4016 7.9237C6.61447 7.40979 6.97496 6.97053 7.43747 6.66149C7.89998 6.35245 8.44375 6.1875 9.00001 6.1875C9.74593 6.1875 10.4613 6.48382 10.9887 7.01126C11.5162 7.53871 11.8125 8.25408 11.8125 9Z" fill="black"/>
</svg>
