<svg width="20" height="20" viewBox="0 0 20 20" fill="none" xmlns="http://www.w3.org/2000/svg">
<path fill-rule="evenodd" clip-rule="evenodd" d="M8.05619 11.1407C8.71133 10.5152 8.71133 9.48482 8.05619 8.85924L7.96667 8.77382C6.28739 7.17111 4.99019 5.93352 4.59916 3.33942C4.46081 2.42471 5.2445 1.66666 6.1877 1.66666H9.99992H13.8123C14.7554 1.66666 15.5391 2.42471 15.4008 3.33942C15.0098 5.93352 13.7125 7.17111 12.0332 8.77382L11.9437 8.85924C11.2886 9.48482 11.2886 10.5152 11.9437 11.1407L12.0332 11.2262C13.7125 12.8289 15.0098 14.0665 15.4008 16.6606C15.5391 17.5752 14.7554 18.3333 13.8123 18.3333H9.99992H6.1877C5.2445 18.3333 4.46081 17.5752 4.59916 16.6606C4.99019 14.0665 6.28739 12.8289 7.96667 11.2262L8.05619 11.1407ZM8.62542 12.5554L8.61933 12.5607C7.33963 13.7049 6.38748 14.5567 6.26338 16.6636C6.25565 16.7932 6.3118 16.9096 6.40336 16.9867C6.47457 17.047 6.56774 17.0833 6.66947 17.0833H9.99992H13.33C13.4501 17.0833 13.5583 17.0327 13.6327 16.9518C13.7023 16.8765 13.7427 16.775 13.7361 16.6636C13.612 14.5567 12.6598 13.7049 11.3806 12.5607C11.042 12.258 10.6807 11.9348 10.3059 11.5626C10.1371 11.3948 9.86242 11.3948 9.69358 11.5626C9.32083 11.9327 8.96158 12.2543 8.62542 12.5554Z" fill="black"/>
</svg>
