<svg width="24" height="24" viewBox="0 0 24 24" fill="none" xmlns="http://www.w3.org/2000/svg">
<path d="M18.016 9.44792V6.61603C18.016 3.30005 15.32 0.599998 12 0.599998C8.68397 0.599998 5.98392 3.30005 5.98392 6.61603V9.44792C4.59591 9.56392 3.50391 10.7359 3.50391 12.1518V15.528C3.50391 19.8679 7.03186 23.4 11.3719 23.4H12.6278C16.9678 23.4 20.4958 19.8679 20.4958 15.528V12.1518C20.4958 10.7358 19.404 9.56389 18.016 9.44792ZM8.58797 6.61603C8.77497 2.09505 15.2251 2.09607 15.4119 6.61603V9.43614H8.58797L8.58797 6.61603ZM11.048 16.7322C9.64397 15.8162 10.329 13.5772 12 13.5921C13.671 13.5781 14.357 15.8151 12.952 16.7322C12.844 16.8042 12.776 16.9322 12.776 17.0642V18.4682C12.75 19.4902 11.251 19.4922 11.224 18.4682V17.0642C11.224 16.9322 11.156 16.8042 11.048 16.7322Z" fill="black"/>
</svg>
