<svg width="32" height="32" viewBox="0 0 32 32" fill="none" xmlns="http://www.w3.org/2000/svg">
<g clip-path="url(#clip0_352_9438)">
<path d="M28.203 22.1598C33.2655 17.0972 33.2654 8.85954 28.203 3.79688C23.1403 -1.26579 14.9028 -1.26579 9.84022 3.79688C5.54524 8.09186 4.89477 14.4796 7.88705 19.4677C7.88705 19.4677 8.10198 19.8283 7.81169 20.1184C6.15561 21.7744 1.18707 26.743 1.18707 26.743C-0.131505 28.0615 -0.445403 29.9052 0.723903 31.0747L0.92523 31.2758C2.09454 32.4453 3.93833 32.1315 5.25681 30.813C5.25681 30.813 10.2148 25.8548 11.8675 24.2023C12.1717 23.8981 12.5322 24.113 12.5322 24.113C17.5202 27.1052 23.908 26.4548 28.203 22.1598ZM12.2374 19.7625C8.4966 16.0218 8.4967 9.93514 12.2375 6.19435C15.9783 2.45366 22.0649 2.45356 25.8056 6.19435C29.5464 9.93504 29.5464 16.0218 25.8056 19.7625C22.0648 23.5031 15.9783 23.5031 12.2374 19.7625Z" fill="black"/>
<path d="M13.0655 12.2078C12.8914 12.2078 12.7144 12.1736 12.5438 12.1016C11.8623 11.8131 11.5434 11.0268 11.8319 10.3452C13.6447 6.06102 18.6049 4.05053 22.889 5.8634C23.5705 6.15184 23.8893 6.93818 23.6009 7.61978C23.3124 8.30139 22.5262 8.62003 21.8444 8.33169C18.9215 7.09487 15.537 8.46663 14.3003 11.3895C14.0839 11.9007 13.5876 12.2078 13.0655 12.2078Z" fill="black"/>
</g>
<defs>
<clipPath id="clip0_352_9438">
<rect width="32" height="32" fill="white"/>
</clipPath>
</defs>
</svg>
