<svg width="28" height="28" viewBox="0 0 28 28" fill="none" xmlns="http://www.w3.org/2000/svg">
<path d="M23.7222 14.1588C23.7222 12.9571 22.7487 11.9794 21.5522 11.9794C20.3556 11.9794 19.3821 12.9571 19.3821 14.1588C19.3821 15.1854 20.0927 16.0478 21.0458 16.2776V21.0287C21.0458 23.883 18.7335 26.2052 15.8913 26.2052C13.0492 26.2052 10.7369 23.883 10.7369 21.0287V16.4189C12.2053 16.3236 13.5728 15.7042 14.6228 14.6497C15.7674 13.5003 16.3977 11.9719 16.3977 10.3463V7.06779V4.91977V2.99784C16.3977 2.71697 16.171 2.48929 15.8913 2.48929H14.1211V1.28633C14.1211 1.00546 13.8943 0.777779 13.6147 0.777779C13.335 0.777779 13.1083 1.00546 13.1083 1.28633V4.82942C13.1083 5.11029 13.335 5.33797 13.6147 5.33797C13.8943 5.33797 14.1211 5.11029 14.1211 4.82942V3.50639H15.385V4.91977V7.06779V10.3463C15.385 13.1413 13.1208 15.4151 10.3377 15.4151C7.55472 15.4151 5.29054 13.1413 5.29054 10.3463V7.06779V4.91977V3.50639H6.57687V4.8294C6.57687 5.11027 6.80361 5.33794 7.08325 5.33794C7.36293 5.33794 7.58964 5.11027 7.58964 4.8294V1.28633C7.58964 1.00546 7.36293 0.777779 7.08325 0.777779C6.80361 0.777779 6.57687 1.00546 6.57687 1.28633V2.48929H4.78415C4.50448 2.48929 4.27777 2.71697 4.27777 2.99784V4.91977V7.06779V10.3463C4.27777 11.9719 4.90812 13.5003 6.05269 14.6497C7.05138 15.6527 8.33728 16.2623 9.72411 16.4015V21.0287C9.72411 22.683 10.3656 24.2384 11.5305 25.4082C12.6953 26.578 14.244 27.2222 15.8913 27.2222C17.5387 27.2222 19.0874 26.578 20.2522 25.4082C21.417 24.2384 22.0585 22.683 22.0585 21.0287V16.2776C23.0116 16.0478 23.7222 15.1853 23.7222 14.1588ZM21.5522 15.321C20.914 15.321 20.3949 14.7996 20.3949 14.1588C20.3949 13.5179 20.914 12.9965 21.5522 12.9965C22.1903 12.9965 22.7095 13.5179 22.7095 14.1588C22.7095 14.7996 22.1903 15.321 21.5522 15.321Z" fill="black"/>
</svg>
