<svg width="48" height="49" viewBox="0 0 48 49" fill="none" xmlns="http://www.w3.org/2000/svg">
<path d="M36.2433 28.2566C36.6542 29.2051 36.8932 30.3658 36.946 31.7078C38.3328 32.0256 39.3705 33.2659 39.3705 34.7472C39.3705 36.4675 37.9708 37.8672 36.2505 37.8672C34.5302 37.8672 33.1305 36.4675 33.1305 34.7472C33.1305 33.2827 34.1457 32.0554 35.508 31.7198C35.448 30.3869 35.1292 28.3589 33.8246 27.3576C33.1588 27.1853 32.4744 27.0605 31.7721 26.9962C31.7203 29.3314 24.0019 35.0942 24.0019 35.0942C24.0019 35.0942 16.2811 29.3323 16.2288 26.9971C15.4488 27.0682 14.6899 27.2107 13.9569 27.4162C13.0051 28.1698 12.5126 29.5738 12.4872 31.6147C12.767 31.7755 12.9931 32.0266 13.1318 32.3304C14.1571 32.8147 15.0629 33.8333 15.7565 35.2834C15.8726 35.5272 15.888 35.8027 15.8025 36.0542C16.2182 37.1242 16.4558 38.2934 16.4558 39.2755C16.4558 40.6517 16.4558 41.953 14.9558 42.287C14.7936 42.4219 14.5901 42.4963 14.3765 42.4963H13.3742C12.8717 42.4963 12.4627 42.0864 12.4627 41.5853L12.4637 41.5498C12.4829 41.065 12.8885 40.6738 13.3742 40.6738H14.3765C14.4792 40.6738 14.5795 40.691 14.6765 40.7246C14.7369 40.7078 14.7561 40.6939 14.7566 40.6934C14.868 40.4957 14.868 39.672 14.868 39.2765C14.868 38.4787 14.6683 37.5154 14.3184 36.6202C14.1369 36.517 13.9901 36.361 13.8998 36.1723C13.2921 34.8998 12.4656 34.0781 11.7945 34.0781C11.1081 34.0781 10.2403 34.967 9.63501 36.288C9.53613 36.5035 9.36285 36.6787 9.14973 36.7838C8.83341 37.6402 8.65965 38.5219 8.65965 39.276C8.65965 39.6082 8.65965 40.4894 8.78637 40.6968C8.78781 40.6968 8.81613 40.7141 8.89581 40.7338C8.99949 40.6939 9.11085 40.6733 9.22221 40.6733H10.2264C10.6944 40.6733 11.0856 41.0294 11.1326 41.4926L11.1374 41.5488C11.1374 42.0869 10.7285 42.4968 10.2264 42.4968H9.22221C9.02301 42.4968 8.83053 42.4301 8.67213 42.3091C8.09853 42.2011 7.69437 41.9482 7.43853 41.5363C7.12845 41.0386 7.07181 40.3848 7.07181 39.276C7.07181 38.3035 7.29645 37.1832 7.70445 36.1133C7.64445 35.8843 7.66461 35.6453 7.76445 35.4298C8.18925 34.5005 8.72973 33.7046 9.32685 33.1291C9.65517 32.8128 10.008 32.5584 10.3771 32.3726C10.5153 32.0491 10.7553 31.7837 11.0486 31.6162C11.064 30.337 11.2608 29.2325 11.6246 28.3219C7.45917 30.4349 4.60461 34.7563 4.60461 39.7469C4.60461 46.1242 9.26397 46.4361 15.3633 46.4361C16.0291 46.4361 16.7107 46.4323 17.4072 46.4323H30.5913C31.2868 46.4323 31.9684 46.4361 32.6342 46.4361C38.7345 46.4361 43.3958 46.1242 43.3958 39.7469C43.3953 34.7035 40.4798 30.3442 36.2433 28.2566Z" fill="black"/>
<path d="M24.0038 28.6723C29.9001 28.6723 34.6795 19.8062 34.6795 13.9104C34.6795 8.0155 29.9001 3.23615 24.0038 3.23615C18.1085 3.23615 13.3291 8.0155 13.3291 13.9104C13.3291 19.8062 18.1085 28.6723 24.0038 28.6723Z" fill="black"/>
<path d="M36.2501 36.1872C37.0453 36.1872 37.6901 35.5425 37.6901 34.7472C37.6901 33.9519 37.0453 33.3072 36.2501 33.3072C35.4548 33.3072 34.8101 33.9519 34.8101 34.7472C34.8101 35.5425 35.4548 36.1872 36.2501 36.1872Z" fill="black"/>
</svg>
