<svg width="24" height="24" viewBox="0 0 24 24" fill="none" xmlns="http://www.w3.org/2000/svg">
<path fill-rule="evenodd" clip-rule="evenodd" d="M14.9744 2.82583L19.1795 7.13233C19.6923 7.64501 20 8.36276 20 9.08051V18.8571H4V4.77401C4 3.23598 5.33333 1.90301 6.8718 2.00555H12.9231C13.7436 2.00555 14.4615 2.31316 14.9744 2.82583ZM12 10.1059H8.92308C8.51282 10.1059 8.10256 10.4135 8.10256 10.9262C8.10256 11.4388 8.51282 11.7464 8.92308 11.7464H12C12.5128 11.7464 12.8205 11.4388 12.8205 10.9262C12.8205 10.4135 12.4103 10.1059 12 10.1059ZM8.92308 15.8479H15.0769C15.4872 15.8479 15.8974 15.5403 15.8974 15.0276C15.8974 14.5149 15.4872 14.2073 15.0769 14.2073H8.92308C8.41026 14.2073 8.10256 14.5149 8.10256 15.0276C8.10256 15.5403 8.51282 15.8479 8.92308 15.8479Z" fill="black"/>
<path d="M2.57143 18.8571H21.4286V20.5714H2.57143V18.8571Z" fill="black"/>
</svg>
