<svg width="12" height="12" viewBox="0 0 12 12" fill="none" xmlns="http://www.w3.org/2000/svg">
<path d="M9.39286 3.18133C9.10851 2.62069 8.68778 2.14053 8.16936 1.785C7.65093 1.42946 7.05145 1.20995 6.42601 1.14666C6.14309 1.11827 5.85803 1.11827 5.5751 1.14666C4.94968 1.20999 4.35021 1.42949 3.83176 1.78499C3.31332 2.14048 2.89253 2.62057 2.60806 3.18114C2.25016 3.8964 2.11192 4.70157 2.21075 5.49525C2.30958 6.28892 2.64106 7.0356 3.16344 7.64124L5.71078 10.7383C5.74595 10.7811 5.79018 10.8156 5.84027 10.8392C5.89036 10.8629 5.94507 10.8752 6.00046 10.8752C6.05586 10.8752 6.11057 10.8629 6.16066 10.8392C6.21075 10.8156 6.25497 10.7811 6.29015 10.7383L8.83749 7.64124C9.35986 7.03564 9.69134 6.28899 9.79017 5.49534C9.889 4.7017 9.75076 3.89656 9.39286 3.18133ZM6.00046 6.37506C5.70379 6.37506 5.41378 6.28708 5.16711 6.12226C4.92044 5.95744 4.72818 5.72317 4.61464 5.44908C4.50111 5.17499 4.47141 4.87339 4.52929 4.58242C4.58716 4.29145 4.73003 4.02418 4.9398 3.8144C5.14958 3.60462 5.41686 3.46176 5.70783 3.40388C5.9988 3.346 6.3004 3.37571 6.57449 3.48924C6.84858 3.60277 7.08285 3.79503 7.24767 4.0417C7.41249 4.28838 7.50046 4.57838 7.50046 4.87506C7.5 5.27274 7.34181 5.654 7.06061 5.9352C6.77941 6.21641 6.39815 6.37459 6.00046 6.37506Z" fill="black"/>
</svg>
