<svg width="140" height="140" viewBox="0 0 140 140" fill="none" xmlns="http://www.w3.org/2000/svg">
<path d="M106.919 68.757H116.684C118.892 68.757 120.688 66.9607 120.688 64.753V54.9875C120.688 52.7797 118.892 50.9835 116.684 50.9835H106.919C104.711 50.9835 102.915 52.7797 102.915 54.9875V64.753C102.915 66.9607 104.711 68.757 106.919 68.757ZM107.016 55.0851H116.587V64.6554H107.016V55.0851ZM106.919 94.7335H116.684C118.892 94.7335 120.688 92.9373 120.688 90.7296V80.964C120.688 78.7563 118.892 76.9601 116.684 76.9601H106.919C104.711 76.9601 102.915 78.7563 102.915 80.964V90.7296C102.915 92.9373 104.711 94.7335 106.919 94.7335ZM107.016 81.0616H116.587V90.632H107.016V81.0616ZM79.051 68.757H88.8165C91.0243 68.757 92.8205 66.9607 92.8205 64.753V54.9875C92.8205 52.7797 91.0243 50.9835 88.8165 50.9835H79.051C76.8433 50.9835 75.0471 52.7797 75.0471 54.9875V64.753C75.0471 66.9607 76.8433 68.757 79.051 68.757ZM79.1486 55.0851H88.7189V64.6554H79.1486V55.0851ZM33.0812 101.719H23.3157C21.108 101.719 19.3117 103.515 19.3117 105.723V115.488C19.3117 117.696 21.108 119.492 23.3157 119.492H33.0812C35.289 119.492 37.0852 117.696 37.0852 115.488V105.723C37.0852 103.515 35.289 101.719 33.0812 101.719ZM32.9836 115.391H23.4133V105.82H32.9836V115.391ZM33.0812 50.9835H23.3157C21.108 50.9835 19.3117 52.7797 19.3117 54.9875V64.753C19.3117 66.9607 21.108 68.757 23.3157 68.757H33.0812C35.289 68.757 37.0852 66.9607 37.0852 64.753V54.9875C37.0852 52.7795 35.289 50.9835 33.0812 50.9835ZM32.9836 64.6554H23.4133V55.0851H32.9836V64.6554ZM79.051 94.1246H88.8165C91.0243 94.1246 92.8205 92.3284 92.8205 90.1206V80.3551C92.8205 78.1473 91.0243 76.3511 88.8165 76.3511H79.051C76.8433 76.3511 75.0471 78.1473 75.0471 80.3551V90.1206C75.0471 92.3284 76.8433 94.1246 79.051 94.1246ZM79.1486 80.4527H88.7189V90.023H79.1486V80.4527ZM122.725 9.3718H113.957V6.23629C113.957 2.79754 111.159 0 107.721 0H106.779C103.34 0 100.543 2.79754 100.543 6.23629V9.3718H39.457V6.23629C39.457 2.79754 36.6594 0 33.2207 0H32.279C28.8402 0 26.0427 2.79754 26.0427 6.23629V9.3718H17.2749C11.6134 9.3718 7.00732 13.9779 7.00732 19.6394V129.746C7.00732 135.4 11.6071 140 17.2612 140H122.739C128.393 140 132.993 135.4 132.993 129.746V19.6394C132.993 13.9779 128.387 9.3718 122.725 9.3718ZM104.644 6.23629C104.644 5.05914 105.602 4.10156 106.779 4.10156H107.721C108.898 4.10156 109.856 5.05914 109.856 6.23629V9.3718H104.644V6.23629ZM30.1445 6.23629C30.1445 5.05914 31.1021 4.10156 32.2792 4.10156H33.221C34.3981 4.10156 35.3557 5.05914 35.3557 6.23629V9.3718H30.1448V6.23629H30.1445ZM128.891 129.746C128.891 133.139 126.131 135.898 122.739 135.898H17.261C13.8684 135.898 11.1086 133.139 11.1086 129.746V129.733C12.8269 131.028 14.9627 131.797 17.2749 131.797H100.423C103.165 131.797 105.744 130.729 107.683 128.789L128.891 107.581V129.746ZM105.59 125.082C105.751 124.418 105.839 123.726 105.839 123.014V109.324C105.839 106.743 107.939 104.643 110.52 104.643H124.209C124.922 104.643 125.614 104.555 126.277 104.394L105.59 125.082ZM128.891 38.6788H41.5078C40.3752 38.6788 39.457 39.597 39.457 40.7296C39.457 41.8622 40.3752 42.7804 41.5078 42.7804H128.891V95.8595C128.891 98.4411 126.791 100.541 124.209 100.541H110.52C105.677 100.541 101.737 104.482 101.737 109.324V123.014C101.737 125.595 99.6367 127.696 97.0555 127.696H17.2749C13.875 127.696 11.1089 124.929 11.1089 121.529V42.7804H33.3046C34.4372 42.7804 35.3554 41.8622 35.3554 40.7296C35.3554 39.597 34.4372 38.6788 33.3046 38.6788H11.1086V19.6394C11.1086 16.2395 13.8747 13.4734 17.2746 13.4734H26.0427V19.5032C26.0427 22.942 28.8402 25.7395 32.279 25.7395C33.4115 25.7395 34.3298 24.8213 34.3298 23.6887C34.3298 22.5561 33.4115 21.6379 32.279 21.6379C31.1018 21.6379 30.1442 20.6804 30.1442 19.5032V13.4734H100.543V19.5032C100.543 22.942 103.34 25.7395 106.779 25.7395C107.912 25.7395 108.83 24.8213 108.83 23.6887C108.83 22.5561 107.912 21.6379 106.779 21.6379C105.602 21.6379 104.644 20.6804 104.644 19.5032V13.4734H122.725C126.125 13.4734 128.891 16.2395 128.891 19.6394V38.6788ZM33.0812 76.3511H23.3157C21.108 76.3511 19.3117 78.1473 19.3117 80.3551V90.1206C19.3117 92.3284 21.108 94.1246 23.3157 94.1246H33.0812C35.289 94.1246 37.0852 92.3284 37.0852 90.1206V80.3551C37.0852 78.1471 35.289 76.3511 33.0812 76.3511ZM32.9836 90.023H23.4133V80.4527H32.9836V90.023ZM51.1833 68.757H60.9489C63.1566 68.757 64.9528 66.9607 64.9528 64.753V54.9875C64.9528 52.7797 63.1566 50.9835 60.9489 50.9835H51.1833C48.9756 50.9835 47.1794 52.7797 47.1794 54.9875V64.753C47.1794 66.9607 48.9756 68.757 51.1833 68.757ZM51.281 55.0851H60.8513V64.6554H51.281V55.0851ZM79.1462 115.391C79.0953 114.303 78.1976 113.437 77.0976 113.437C75.965 113.437 75.0468 114.356 75.0468 115.488C75.0468 117.696 76.843 119.492 79.0507 119.492H88.8163C91.024 119.492 92.8202 117.696 92.8202 115.488V105.723C92.8202 103.515 91.024 101.719 88.8163 101.719H79.0507C76.843 101.719 75.0468 103.515 75.0468 105.723V108.539C75.0468 109.672 75.965 110.59 77.0976 110.59C78.2301 110.59 79.1483 109.672 79.1483 108.539V105.82H88.7187V115.391H79.1462ZM51.1833 94.1246H60.9489C63.1566 94.1246 64.9528 92.3284 64.9528 90.1206V80.3551C64.9528 78.1473 63.1566 76.3511 60.9489 76.3511H51.1833C48.9756 76.3511 47.1794 78.1473 47.1794 80.3551V90.1206C47.1794 92.3284 48.9756 94.1246 51.1833 94.1246ZM51.281 80.4527H60.8513V90.023H51.281V80.4527ZM51.1833 119.492H60.9489C63.1566 119.492 64.9528 117.696 64.9528 115.488V105.723C64.9528 103.515 63.1566 101.719 60.9489 101.719H51.1833C48.9756 101.719 47.1794 103.515 47.1794 105.723V115.488C47.1794 117.696 48.9756 119.492 51.1833 119.492ZM51.281 105.82H60.8513V115.391H51.281V105.82Z" fill="black"/>
</svg>
