<svg width="24" height="24" viewBox="0 0 24 24" fill="none" xmlns="http://www.w3.org/2000/svg">
<path d="M14.2002 2.00002H11.8002C11.4686 2.00002 11.2002 2.26842 11.2002 2.60002C11.2002 2.93161 11.4686 3.20002 11.8002 3.20002H14.2002C14.5318 3.20002 14.8002 2.93161 14.8002 2.60002C14.8002 2.26842 14.5318 2.00002 14.2002 2.00002Z" fill="#202020"/>
<path d="M16.7998 0H7.1998C5.87662 0 4.7998 1.07681 4.7998 2.4V21.6C4.7998 22.9232 5.87662 24 7.1998 24H16.7998C18.123 24 19.1998 22.9232 19.1998 21.6V2.4C19.1998 1.07681 18.123 0 16.7998 0ZM17.9998 21.6C17.9998 22.2628 17.4626 22.8 16.7998 22.8H7.1998C6.53699 22.8 5.9998 22.2628 5.9998 21.6V2.4C5.9998 1.73719 6.53699 1.2 7.1998 1.2H16.7998C17.4626 1.2 17.9998 1.73719 17.9998 2.4V21.6Z" fill="#202020"/>
<path d="M11.9998 22C12.6625 22 13.1998 21.4627 13.1998 20.8C13.1998 20.1372 12.6625 19.6 11.9998 19.6C11.3371 19.6 10.7998 20.1372 10.7998 20.8C10.7998 21.4627 11.3371 22 11.9998 22Z" fill="#202020"/>
<path d="M9.8002 3.20002C10.1316 3.20002 10.4002 2.93139 10.4002 2.60002C10.4002 2.26864 10.1316 2.00002 9.8002 2.00002C9.46882 2.00002 9.2002 2.26864 9.2002 2.60002C9.2002 2.93139 9.46882 3.20002 9.8002 3.20002Z" fill="#202020"/>
</svg>
