<svg width="48" height="49" viewBox="0 0 48 49" fill="none" xmlns="http://www.w3.org/2000/svg">
<g clip-path="url(#clip0_344_9440)">
<path d="M43.7812 23.4375H42.375V19.2188C42.375 9.13879 34.08 0.84375 24 0.84375C13.92 0.84375 5.625 9.13879 5.625 19.2188V23.4375H4.21875C1.89258 23.4375 0 25.3301 0 27.6562V33.2812C0 35.6074 1.89258 37.5 4.21875 37.5H7.03125C7.80835 37.5 8.4375 36.8708 8.4375 36.0938V19.2188C8.4375 17.755 8.6554 16.2495 9.03699 14.9062H11.1295C12.7965 14.9062 14.306 13.9175 14.9718 12.3878C16.5432 8.79236 20.0874 6.46875 24 6.46875C27.9126 6.46875 31.4568 8.79236 33.0267 12.3864C33.694 13.9175 35.2035 14.9062 36.8705 14.9062H38.963C39.3446 16.2495 39.5625 17.755 39.5625 19.2188V39C39.5625 41.3262 37.5762 43.2188 35.25 43.2188H27.9598C27.3772 41.5854 25.8311 40.4062 24 40.4062C21.6738 40.4062 19.7812 42.2988 19.7812 44.625C19.7812 46.9512 21.6738 48.8438 24 48.8438C25.8311 48.8438 27.3772 47.6646 27.9598 46.0312H35.25C39.1267 46.0312 42.375 42.8767 42.375 39V37.5H43.7812C46.1074 37.5 48 35.6074 48 33.2812V27.6562C48 25.3301 46.1074 23.4375 43.7812 23.4375Z" fill="black"/>
<path d="M18.0425 27.6562C17.7616 27.899 14.1562 29.0486 14.1562 33.2812C14.1562 34.0583 14.7854 34.6875 15.5625 34.6875H21.1875C21.9646 34.6875 22.5938 34.0583 22.5938 33.2812C22.5938 32.5042 21.9646 31.875 21.1875 31.875H17.2969C17.9183 30.6295 18.9738 30.3838 19.3004 30.1721C21.3318 29.1573 22.5938 27.1154 22.5938 24.8438C22.5938 22.5176 20.7012 20.625 18.375 20.625C16.0488 20.625 14.1562 22.5176 14.1562 24.8438C14.1562 25.6208 14.7854 26.25 15.5625 26.25C16.3396 26.25 16.9688 25.6208 16.9688 24.8438C16.9688 24.0677 17.599 23.4375 18.375 23.4375C19.151 23.4375 19.7812 24.0677 19.7812 24.8438C19.7812 26.0427 19.1151 27.1205 18.0425 27.6562Z" fill="black"/>
<path d="M26.8125 20.625C26.0354 20.625 25.4062 21.2542 25.4062 22.0312V27.6562C25.4062 28.4333 26.0354 29.0625 26.8125 29.0625H31.0312V33.2812C31.0312 34.0583 31.6604 34.6875 32.4375 34.6875C33.2146 34.6875 33.8438 34.0583 33.8438 33.2812V22.0312C33.8438 21.2542 33.2146 20.625 32.4375 20.625C31.6604 20.625 31.0312 21.2542 31.0312 22.0312V26.25H28.2188V22.0312C28.2188 21.2542 27.5896 20.625 26.8125 20.625Z" fill="black"/>
</g>
<defs>
<clipPath id="clip0_344_9440">
<rect width="48" height="48" fill="white" transform="translate(0 0.84375)"/>
</clipPath>
</defs>
</svg>
