<svg width="24" height="24" viewBox="0 0 24 24" fill="none" xmlns="http://www.w3.org/2000/svg">
<g clip-path="url(#clip0_229_9305)">
<path d="M20.4853 3.51473C18.2188 1.24823 15.2053 0 12 0C8.79469 0 5.78119 1.24823 3.51469 3.51473C1.24819 5.78123 0 8.79469 0 12C0 15.2053 1.24819 18.2188 3.51469 20.4853C5.78119 22.7517 8.79469 24 12 24C15.2053 24 18.2188 22.7518 20.4853 20.4853C22.7518 18.2188 24 15.2053 24 12C24 8.79469 22.7518 5.78119 20.4853 3.51473ZM12 21.6446C6.68189 21.6446 2.35538 17.3181 2.35538 12C2.35538 11.9913 2.35566 11.9827 2.3557 11.974C2.3557 11.9718 2.35538 11.9697 2.35538 11.9675C2.35538 11.9638 2.35584 11.9603 2.35594 11.9566C2.37933 6.70223 6.62559 2.42738 11.8689 2.35706C11.8799 2.35655 11.8908 2.35542 11.9019 2.35542C11.9085 2.35542 11.915 2.35622 11.9216 2.35641C11.9478 2.35622 11.9738 2.35542 12 2.35542C17.3182 2.35542 21.6447 6.68198 21.6447 12C21.6447 17.3181 17.3181 21.6446 12 21.6446Z" fill="black"/>
<path d="M19.3261 12.5794C18.934 12.5794 18.6161 12.2615 18.6161 11.8693C18.6161 11.4771 18.934 11.1592 19.3261 11.1592H20.182C19.78 7.21817 16.5838 4.09175 12.6121 3.79822V4.5433C12.6121 4.93545 12.2942 5.25336 11.902 5.25336C11.5099 5.25336 11.192 4.93545 11.192 4.5433V3.81519C7.27902 4.19862 4.16216 7.33559 3.80952 11.2573H4.57602C4.96818 11.2573 5.28609 11.5752 5.28609 11.9674C5.28609 12.3596 4.96818 12.6775 4.57602 12.6775H3.80371C4.1302 16.6624 7.30954 19.8515 11.2901 20.1935V19.2934C11.2901 18.9012 11.608 18.5833 12.0002 18.5833C12.3923 18.5833 12.7102 18.9012 12.7102 19.2934V20.1935C16.7234 19.8486 19.9221 16.6099 20.204 12.5794H19.3261ZM14.8746 10.1298L12.5023 12.5021C12.3691 12.6352 12.1886 12.71 12.0002 12.71C11.8119 12.71 11.6313 12.6352 11.4981 12.5021L7.36879 8.3727C7.09148 8.09544 7.09148 7.64586 7.36879 7.36855C7.64606 7.09123 8.09563 7.09123 8.37295 7.36855L12.0003 10.9958L13.8705 9.12561C14.1478 8.8483 14.5973 8.8483 14.8746 9.12561C15.1519 9.40287 15.1519 9.8525 14.8746 10.1298Z" fill="black"/>
</g>
<defs>
<clipPath id="clip0_229_9305">
<rect width="24" height="24" fill="white"/>
</clipPath>
</defs>
</svg>
