<svg width="48" height="48" viewBox="0 0 48 48" fill="none" xmlns="http://www.w3.org/2000/svg">
<path d="M33.1943 44C31.7402 44 30.4035 43.2069 29.7062 41.93L26.2772 35.6428C25.8222 34.809 24.9494 34.2911 24 34.2911C23.0503 34.2911 22.1778 34.809 21.7225 35.6431L18.2941 41.9297C17.5974 43.2066 16.2607 44 14.8057 44C13.0344 44 11.486 42.8654 10.9525 41.1765L5.56647 24.1199C4.52704 20.8277 4 17.4088 4 13.9591C4 8.46747 8.46686 4 13.957 4C18.8856 4 20.282 5.86646 24 5.86646C27.7186 5.86646 29.1154 4 34.0415 4C39.5332 4 44 8.46747 44 13.9591C44 17.4088 43.473 20.8277 42.4338 24.1199L37.0478 41.1765C36.514 42.8654 34.9656 44 33.1943 44Z" fill="black"/>
</svg>
