<svg width="36" height="36" viewBox="0 0 36 36" fill="none" xmlns="http://www.w3.org/2000/svg">
<path d="M17.9999 30.6C14.6343 30.6 11.4702 29.2894 9.09032 26.9096C6.71055 24.5297 5.3999 21.3656 5.3999 18C5.3999 14.6344 6.71055 11.4703 9.09032 9.09042C11.4702 6.71065 14.6343 5.4 17.9999 5.4C21.3655 5.4 24.5296 6.71065 26.9095 9.09042C29.2893 11.4703 30.5999 14.6344 30.5999 18C30.5999 21.3656 29.2893 24.5297 26.9095 26.9096C24.5296 29.2894 21.3655 30.6 17.9999 30.6ZM17.9999 7.36875C12.1378 7.36875 7.36865 12.1379 7.36865 18C7.36865 23.8621 12.1378 28.6313 17.9999 28.6313C23.862 28.6313 28.6312 23.8621 28.6312 18C28.6312 12.1379 23.862 7.36875 17.9999 7.36875ZM17.9507 18.9352C15.3453 18.9352 13.2257 16.8156 13.2257 14.2102C13.2257 11.6048 15.3453 9.48516 17.9507 9.48516C20.5561 9.48516 22.6757 11.6048 22.6757 14.2102C22.6757 16.8156 20.5561 18.9352 17.9507 18.9352ZM17.9507 11.4539C16.4309 11.4539 15.1944 12.6904 15.1944 14.2102C15.1944 15.7299 16.4309 16.9664 17.9507 16.9664C19.4705 16.9664 20.7069 15.7299 20.7069 14.2102C20.7069 12.6904 19.4705 11.4539 17.9507 11.4539ZM24.1873 24.6678C24.6079 24.3233 24.6696 23.7031 24.3251 23.2825C22.9331 21.5832 20.8764 20.6086 18.6823 20.6086H17.5144C15.3202 20.6086 13.2635 21.5832 11.8716 23.2825C11.5271 23.7031 11.5888 24.3233 12.0094 24.6678C12.43 25.0123 13.0502 24.9506 13.3948 24.5301C14.4111 23.289 15.9127 22.5773 17.5144 22.5773H18.6823C20.284 22.5773 21.7856 23.289 22.802 24.53C22.9966 24.7676 23.2792 24.8906 23.5641 24.8906C23.7835 24.8906 24.0043 24.8176 24.1873 24.6678Z" fill="black"/>
</svg>
