<svg width="40" height="40" viewBox="0 0 40 40" fill="none" xmlns="http://www.w3.org/2000/svg">
<path d="M33.4219 15.0178V29.7766C33.4219 30.3295 32.9748 30.7766 32.4219 30.7766H7.5807C7.02776 30.7766 6.58071 30.3295 6.58071 29.7766V13.8942C6.58071 13.3413 7.02776 12.8942 7.5807 12.8942H20.7337V10.2354H6.48659C5.06894 10.2354 3.92188 11.3825 3.92188 12.8001V32.4413H36.0807V15.0178H33.4219Z" fill="black"/>
<path d="M38.8101 33.4C38.5983 33.0765 38.2454 32.8824 37.8571 32.8824H2.14538C1.75714 32.8824 1.40422 33.0765 1.19244 33.4C0.980687 33.7236 0.951264 34.1295 1.09832 34.453L1.61008 36.1647C2.09833 37.2589 3.18657 37.9589 4.38069 37.9589H35.6159C36.8042 37.9589 37.8925 37.2589 38.3983 36.1412L38.8983 34.4647C39.0513 34.1177 39.016 33.7177 38.8101 33.4ZM23.0395 36.1353H16.963C16.563 36.1353 16.2454 35.8118 16.2454 35.4177C16.2454 35.0236 16.563 34.7 16.963 34.7H23.0395C23.4336 34.7 23.7571 35.0236 23.7571 35.4177C23.7571 35.8118 23.4336 36.1353 23.0395 36.1353Z" fill="black"/>
<path d="M15.1621 22.3356C13.408 22.3356 11.981 20.6903 11.981 18.6674C11.981 16.645 13.408 14.9998 15.1621 14.9998C16.9168 14.9998 18.3445 16.645 18.3445 18.6674C18.3445 20.6903 16.9168 22.3356 15.1621 22.3356Z" fill="black"/>
<path d="M20.4196 28.6747H9.90548C9.73137 28.6747 9.56372 28.6017 9.44549 28.4747C9.32667 28.347 9.26607 28.1747 9.27844 28.0012L9.47549 25.2506C9.58667 23.7041 10.8873 22.4929 12.4379 22.4929H17.8872C19.4378 22.4929 20.7384 23.7041 20.849 25.2506L21.0461 28.0012C21.0584 28.1747 20.9978 28.347 20.8796 28.4747C20.7614 28.6017 20.5931 28.6747 20.4196 28.6747Z" fill="black"/>
<path d="M37.9807 2.51179C37.6748 2.22355 37.2631 2.0412 36.7984 2.0412H22.9042C21.9513 2.0412 21.1748 2.82355 21.1748 3.77649V12.8412C21.1748 12.9353 21.1807 13.0236 21.1984 13.1118C21.3278 13.9412 22.0454 14.5765 22.9042 14.5765H23.0101C23.4925 14.5765 23.8807 14.9647 23.8807 15.4412V17.5412C23.8807 18.153 24.6219 18.4706 25.069 18.0353L28.269 14.8353C28.4336 14.6706 28.6513 14.5765 28.8807 14.5765H36.7984C37.7572 14.5765 38.5336 13.8 38.5336 12.8412V3.77649C38.5336 3.2765 38.3219 2.82943 37.9807 2.51179ZM25.4042 9.52943C24.6925 9.52943 24.1219 8.95296 24.1219 8.2412C24.1219 7.52944 24.6925 6.95885 25.4042 6.95885C26.116 6.95885 26.6925 7.52944 26.6925 8.2412C26.6925 8.95296 26.116 9.52943 25.4042 9.52943ZM29.8513 9.52943C29.1395 9.52943 28.5689 8.95296 28.5689 8.2412C28.5689 7.52944 29.1395 6.95885 29.8513 6.95885C30.5631 6.95885 31.1395 7.52944 31.1395 8.2412C31.1395 8.95296 30.5631 9.52943 29.8513 9.52943ZM34.2984 9.52943C33.5866 9.52943 33.016 8.95296 33.016 8.2412C33.016 7.52944 33.5866 6.95885 34.2984 6.95885C35.0101 6.95885 35.5866 7.52944 35.5866 8.2412C35.5866 8.95296 35.0101 9.52943 34.2984 9.52943Z" fill="black"/>
</svg>
