<svg width="168" height="168" viewBox="0 0 168 168" fill="none" xmlns="http://www.w3.org/2000/svg">
<path d="M84 8.4C84 3.76081 87.7701 -0.0435004 92.3861 0.419652C100.54 1.23781 108.546 3.24645 116.145 6.39412C126.337 10.6155 135.597 16.8029 143.397 24.603C151.197 32.4032 157.384 41.6633 161.606 51.8546C164.754 59.4538 166.762 67.4597 167.58 75.6139C168.044 80.23 164.239 84 159.6 84V84C154.961 84 151.254 80.2248 150.676 75.6218C149.929 69.6757 148.388 63.8436 146.085 58.2837C142.708 50.1306 137.758 42.7225 131.518 36.4824C125.277 30.2423 117.869 25.2924 109.716 21.9153C104.156 19.6123 98.3243 18.0715 92.3782 17.3243C87.7752 16.7459 84 13.0392 84 8.4V8.4Z" fill="black"/>
</svg>
