<svg width="179" height="72" viewBox="0 0 179 72" fill="none" xmlns="http://www.w3.org/2000/svg">
<path d="M42.3316 59.0846H33.6489C25.5698 59.0846 18.4468 54.913 14.3209 48.6105H3.56016C1.92142 48.6105 0.539913 47.5459 0.122094 45.9613C-0.295725 44.377 0.38144 42.7694 1.80715 41.9613L10.5852 36.9866C10.5714 36.6596 10.5643 36.3303 10.5643 36.0001C10.5643 23.2713 20.92 12.9153 33.6489 12.9153H41.0737C43.4432 12.9153 45.441 14.4547 46.0453 16.746C46.6493 19.0372 45.6701 21.3615 43.6088 22.5298L14.5052 39.0238C14.834 41.1125 15.4978 43.0925 16.4392 44.9048L42.3314 44.905C44.4352 44.905 46.4166 45.8302 47.7675 47.4433C49.5549 49.5784 49.9333 52.4717 48.7553 54.9945C47.5774 57.5175 45.1158 59.0846 42.3316 59.0846ZM18.9452 48.6105C22.5021 52.7517 27.7745 55.3792 33.6489 55.3792H42.3316C43.6809 55.3792 44.8272 54.6494 45.3982 53.4268C45.9691 52.2041 45.7928 50.8567 44.9266 49.8222C44.2817 49.0522 43.3359 48.6105 42.3316 48.6105H18.9452ZM4.12803 44.905H12.3508C11.8205 43.641 11.3992 42.3198 11.0993 40.9542L4.12803 44.905ZM33.6489 16.6208C23.3387 16.6208 14.8834 24.7132 14.3015 34.8802L41.7817 19.3061C42.675 18.7998 42.5283 17.9416 42.4623 17.6907C42.3961 17.4396 42.1004 16.6208 41.0737 16.6208H33.6489Z" fill="url(#paint0_linear_36_507)"/>
<g opacity="0.61">
<path d="M10.6001 44.9052H4.12804C4.12804 44.9052 4.21454 48.6106 8.62509 48.6106H10.9892L10.6001 44.9052Z" fill="url(#paint1_linear_36_507)"/>
</g>
<path opacity="0.61" d="M20.2995 31.4806L14.3017 34.8796C13.9633 37.9477 14.5056 39.0236 14.5056 39.0236L20.5935 35.5738L20.2995 31.4806Z" fill="url(#paint2_linear_36_507)"/>
<path opacity="0.61" d="M18.9446 48.6105H14.3203C15.9012 51.0251 17.9207 53.1261 20.2662 54.7997L24.3545 53.0013C22.2954 51.8713 20.4637 50.3792 18.9446 48.6105Z" fill="url(#paint3_linear_36_507)"/>
<path opacity="0.61" d="M14.7391 40.2451L11.456 42.3621C11.7054 43.2316 12.0044 44.0814 12.3502 44.9052H16.4398C15.6827 43.4502 15.1058 41.8865 14.7391 40.2451Z" fill="url(#paint4_linear_36_507)"/>
<path opacity="0.61" d="M10.5852 36.9867L3.77472 40.8465L4.12804 44.905L11.0991 40.9538C11.0991 40.9538 10.4828 40.1846 10.5852 36.9867Z" fill="url(#paint5_linear_36_507)"/>
<path d="M72.2663 47.8579C70.2704 47.8579 68.4791 47.5507 66.8926 46.9367C65.3055 46.3225 63.9621 45.4207 62.8622 44.2307C61.7616 43.0406 60.9174 41.5885 60.329 39.8742C59.7399 38.16 59.4459 36.1894 59.4459 33.9631C59.4459 31.7367 59.7849 29.7667 60.4634 28.052C61.1409 26.338 62.0686 24.8853 63.2461 23.6956C64.4226 22.5057 65.8045 21.6036 67.3916 20.9894C68.9779 20.3754 70.6792 20.0682 72.4965 20.0682C73.5965 20.0682 74.5946 20.1517 75.4903 20.3176C76.3859 20.4843 77.166 20.6698 77.8317 20.8742C78.497 21.0792 79.0467 21.2964 79.4823 21.5267C79.917 21.7569 80.224 21.9238 80.4035 22.0256L78.9831 25.9791C78.3691 25.5954 77.4923 25.2308 76.3539 24.8853C75.2151 24.5398 73.9802 24.367 72.65 24.367C71.4984 24.367 70.4237 24.5655 69.4257 24.962C68.4278 25.359 67.564 25.9541 66.8348 26.7468C66.1056 27.5403 65.5358 28.5383 65.1268 29.7408C64.7172 30.944 64.5126 32.3383 64.5126 33.9246C64.5126 35.3321 64.6722 36.6248 64.9924 37.8013C65.312 38.9788 65.8043 39.9957 66.4702 40.8528C67.1353 41.7104 67.9797 42.3755 69.0035 42.849C70.0265 43.3228 71.2549 43.5589 72.6883 43.5589C74.4024 43.5589 75.7975 43.3863 76.872 43.0406C77.9467 42.6952 78.778 42.3688 79.3671 42.062L80.6722 46.0155C80.365 46.2205 79.9487 46.4251 79.4247 46.6295C78.8999 46.8347 78.2792 47.0324 77.563 47.2244C76.8464 47.4163 76.0402 47.5697 75.1449 47.6849C74.2489 47.8003 73.2895 47.8579 72.2663 47.8579Z" fill="#4249E1"/>
<path d="M91.3807 26.7085C92.9159 26.7085 94.2078 26.9003 95.2574 27.2843C96.3063 27.668 97.1442 28.2055 97.7714 28.8964C98.3982 29.5873 98.8461 30.4257 99.1148 31.4104C99.3835 32.3959 99.5177 33.4771 99.5177 34.6538V46.8213C98.8011 46.9748 97.7197 47.1608 96.2743 47.3779C94.8285 47.5949 93.1972 47.7042 91.3805 47.7042C90.1774 47.7042 89.0774 47.5892 88.0795 47.3587C87.0813 47.1287 86.2304 46.7579 85.5268 46.2456C84.8226 45.734 84.2728 45.0691 83.8764 44.2497C83.4792 43.4309 83.2815 42.4205 83.2815 41.2174C83.2815 40.0657 83.5053 39.0936 83.9531 38.3001C84.4004 37.5072 85.0087 36.8608 85.7766 36.3616C86.5443 35.8627 87.4329 35.5048 88.4441 35.2869C89.4548 35.0699 90.5104 34.9606 91.6109 34.9606C92.1223 34.9606 92.6598 34.993 93.2231 35.0567C93.7856 35.1208 94.3873 35.2295 95.027 35.383V34.6153C95.027 34.0781 94.9629 33.5665 94.835 33.0799C94.707 32.5942 94.483 32.1653 94.1634 31.7941C93.8432 31.4234 93.421 31.1356 92.8969 30.9304C92.3721 30.726 91.7129 30.6234 90.9202 30.6234C89.8453 30.6234 88.8602 30.7001 87.9646 30.8536C87.0687 31.0071 86.3393 31.1865 85.7769 31.3909L85.201 27.6294C85.7894 27.4247 86.6463 27.2203 87.7726 27.0152C88.8981 26.8111 90.1008 26.7085 91.3807 26.7085ZM91.7646 44.0194C93.1974 44.0194 94.2845 43.9425 95.027 43.7892V38.6458C94.7709 38.5688 94.3998 38.4923 93.9138 38.4153C93.4275 38.3386 92.8902 38.3003 92.3019 38.3003C91.7897 38.3003 91.2714 38.3386 90.7471 38.4153C90.2225 38.4923 89.7492 38.6331 89.3272 38.8377C88.9048 39.0427 88.5654 39.3306 88.3097 39.7013C88.0538 40.0724 87.926 40.5396 87.926 41.1021C87.926 42.2029 88.2714 42.9639 88.9622 43.3861C89.6535 43.8083 90.5871 44.0194 91.7646 44.0194Z" fill="#4249E1"/>
<path d="M105.199 27.86C106.094 27.6045 107.258 27.361 108.692 27.1306C110.124 26.9003 111.711 26.7851 113.451 26.7851C115.088 26.7851 116.458 27.0094 117.558 27.4569C118.658 27.905 119.535 28.5316 120.187 29.3376C120.839 30.1435 121.3 31.1164 121.569 32.2548C121.838 33.3936 121.972 34.6412 121.972 35.9972V47.282H117.328V36.7266C117.328 35.6517 117.257 34.7371 117.116 33.9822C116.976 33.2277 116.745 32.6135 116.425 32.1398C116.105 31.6665 115.67 31.3212 115.12 31.1034C114.57 30.8862 113.898 30.7771 113.105 30.7771C112.516 30.7771 111.902 30.8153 111.263 30.8923C110.623 30.969 110.15 31.0331 109.843 31.0842V47.2822H105.198V27.86H105.199Z" fill="#4249E1"/>
<path d="M127.422 21.9106L132.067 21.1429V27.2075H139.206V31.0843H132.067V39.26C132.067 40.8721 132.322 42.0236 132.835 42.7145C133.346 43.4054 134.217 43.7507 135.445 43.7507C136.289 43.7507 137.038 43.6615 137.69 43.482C138.343 43.3032 138.861 43.1367 139.245 42.9832L140.013 46.668C139.475 46.898 138.771 47.135 137.901 47.3779C137.031 47.6206 136.007 47.7425 134.831 47.7425C133.397 47.7425 132.202 47.5505 131.242 47.1666C130.282 46.7828 129.521 46.2262 128.958 45.497C128.395 44.7678 127.999 43.8849 127.768 42.8486C127.538 41.8122 127.423 40.629 127.423 39.2981V21.9106H127.422Z" fill="#4249E1"/>
<path d="M161.392 37.2256C161.392 38.8127 161.162 40.2579 160.701 41.563C160.24 42.8682 159.588 43.9813 158.744 44.9025C157.899 45.8237 156.882 46.5403 155.692 47.0519C154.502 47.5635 153.191 47.8194 151.758 47.8194C150.324 47.8194 149.019 47.5633 147.843 47.0519C146.665 46.5403 145.655 45.8237 144.81 44.9025C143.966 43.9813 143.307 42.8682 142.834 41.563C142.36 40.2579 142.123 38.8127 142.123 37.2256C142.123 35.6393 142.36 34.2 142.834 32.9075C143.307 31.6158 143.972 30.5085 144.83 29.5873C145.687 28.6661 146.704 27.9559 147.881 27.4571C149.058 26.9581 150.35 26.7087 151.758 26.7087C153.165 26.7087 154.464 26.9581 155.654 27.4571C156.844 27.9561 157.861 28.6661 158.705 29.5873C159.55 30.5085 160.208 31.6156 160.682 32.9075C161.155 34.1998 161.392 35.6393 161.392 37.2256ZM156.632 37.2256C156.632 35.2297 156.203 33.6499 155.346 32.4853C154.489 31.3212 153.293 30.7388 151.758 30.7388C150.222 30.7388 149.026 31.321 148.169 32.4853C147.311 33.6499 146.883 35.2297 146.883 37.2256C146.883 39.2475 147.311 40.847 148.169 42.0235C149.026 43.201 150.222 43.7892 151.758 43.7892C153.293 43.7892 154.489 43.2008 155.346 42.0235C156.204 40.8468 156.632 39.2473 156.632 37.2256Z" fill="#4249E1"/>
<path d="M177.628 31.3913C177.244 31.2636 176.712 31.1292 176.035 30.9882C175.357 30.8479 174.57 30.7771 173.674 30.7771C173.162 30.7771 172.619 30.8287 172.043 30.9306C171.467 31.0332 171.064 31.1225 170.834 31.1993V47.282H166.19V28.167C167.085 27.8347 168.205 27.521 169.548 27.2267C170.892 26.9329 172.382 26.7853 174.02 26.7853C174.327 26.7853 174.685 26.8046 175.095 26.8429C175.504 26.8812 175.914 26.9329 176.323 26.9964C176.732 27.0605 177.129 27.1373 177.513 27.2267C177.897 27.3166 178.204 27.3995 178.434 27.476L177.628 31.3913Z" fill="#4249E1"/>
<defs>
<linearGradient id="paint0_linear_36_507" x1="19.7131" y1="18.8588" x2="30.9632" y2="60.5642" gradientUnits="userSpaceOnUse">
<stop stop-color="#3FE6FF"/>
<stop offset="1" stop-color="#7800FD"/>
</linearGradient>
<linearGradient id="paint1_linear_36_507" x1="4.95728" y1="46.4348" x2="11.7073" y2="46.917" gradientUnits="userSpaceOnUse">
<stop/>
<stop offset="0.784"/>
</linearGradient>
<linearGradient id="paint2_linear_36_507" x1="13.8573" y1="36.9518" x2="19.7234" y2="34.1393" gradientUnits="userSpaceOnUse">
<stop/>
<stop offset="0.784"/>
</linearGradient>
<linearGradient id="paint3_linear_36_507" x1="17.0686" y1="47.8386" x2="21.0061" y2="53.0619" gradientUnits="userSpaceOnUse">
<stop/>
<stop offset="0.784"/>
</linearGradient>
<linearGradient id="paint4_linear_36_507" x1="14.8511" y1="45.4368" x2="13.1636" y2="41.7404" gradientUnits="userSpaceOnUse">
<stop/>
<stop offset="0.784"/>
</linearGradient>
<linearGradient id="paint5_linear_36_507" x1="10.9389" y1="39.2963" x2="4.83169" y2="42.1088" gradientUnits="userSpaceOnUse">
<stop/>
<stop offset="0.784"/>
</linearGradient>
</defs>
</svg>
