<svg width="326" height="474" viewBox="0 0 326 474" fill="none" xmlns="http://www.w3.org/2000/svg">
<g style="mix-blend-mode:luminosity">
<path d="M231.184 375.145C226.655 372.301 221.467 370.515 216.147 369.969C213.69 369.717 211.005 369.788 209.034 371.277C208.616 371.593 208.208 372.06 208.301 372.576C208.37 372.955 208.69 373.231 208.996 373.464C215.115 378.132 224.37 378.722 231.184 375.145Z" fill="#E0E0E0"/>
<path d="M230.798 374.72C227.394 372.064 223.97 369.389 221.086 366.175C218.202 362.961 215.858 359.145 214.997 354.914C214.736 353.631 214.655 352.164 215.478 351.146C223.22 357.192 229.301 365.011 230.798 374.72Z" fill="#E0E0E0"/>
<path d="M231.104 375.087C230.521 370.852 230.311 366.499 231.284 362.335C232.257 358.172 234.521 354.188 238.076 351.813C239.414 354.94 238.839 358.542 237.896 361.81C236.44 366.86 234.155 371.67 231.161 375.99" fill="#E0E0E0"/>
<path d="M238.693 388.686C234.086 389.246 230.074 391.674 226.634 394.789C223.194 397.904 220.749 402.102 219.736 406.63C224.255 406.351 228.089 403.164 230.869 399.591C233.65 396.018 235.576 392.097 238.63 388.755" fill="#E0E0E0"/>
<path d="M240.341 390.861C236.63 381.721 237.975 370.707 243.775 362.727C246.401 372.063 245.437 382.609 240.341 390.861Z" fill="#E0E0E0"/>
<path d="M250.369 402.801C246.188 402.541 241.937 403.537 238.307 405.627C234.677 407.717 231.68 410.893 229.805 414.638C229.55 415.147 229.325 415.794 229.667 416.25C229.963 416.646 230.537 416.683 231.031 416.651C235.084 416.388 238.676 413.95 241.64 411.173C244.604 408.396 247.186 405.189 250.461 402.788" fill="#E0E0E0"/>
<path d="M250.049 402.151C247.892 395.25 247.758 387.73 249.667 380.756C250.421 378.002 251.686 375.103 254.233 373.812C254.45 373.702 254.704 373.604 254.932 373.689C255.148 373.77 255.274 373.992 255.373 374.201C256.279 376.094 256.543 378.243 256.449 380.339C256.356 382.435 255.921 384.5 255.487 386.553C254.685 390.351 254.258 394.432 252.176 397.707C251.682 398.484 251.246 399.324 250.852 400.157C250.458 400.99 250.455 401.283 250.093 401.945" fill="#E0E0E0"/>
<path d="M276.593 406.106C274.627 398.626 276.714 389.557 281.428 383.425C281.775 382.973 282.235 382.489 282.802 382.542C283.67 382.622 283.895 383.779 283.856 384.65C283.515 392.293 280.965 399.826 276.593 406.106Z" fill="#E0E0E0"/>
<path d="M278.986 407.741C288.074 410.106 298.5 407.807 306.059 402.235C301.579 399.965 296.299 399.317 291.403 400.436C286.507 401.556 282.033 403.749 278.986 407.741Z" fill="#E0E0E0"/>
<path d="M281.004 402.761C286.094 394.463 295.852 389.046 305.575 388.553C304.455 392.507 301.205 395.581 297.539 397.438C293.872 399.295 289.779 400.104 285.745 400.887C284.174 401.192 282.021 401.528 281.004 402.761Z" fill="#E0E0E0"/>
<path d="M277.098 378.592C278.476 373.87 279.862 369.107 280.24 364.202C280.619 359.298 279.919 354.178 277.374 349.968C272.62 359.168 272.138 369.917 276.955 379.085" fill="#E0E0E0"/>
<path d="M293.105 370.502C298.665 360.397 310.009 352.325 321.487 351.194C317.059 362.218 304.984 370.739 293.105 370.502Z" fill="#E0E0E0"/>
<path d="M289.607 372.482C297.899 373.745 304.964 379.041 312.713 382.252C314.37 382.939 316.158 383.486 317.936 383.252C319.715 383.019 321.47 381.826 321.868 380.077C322.199 378.625 321.538 377.083 320.496 376.019C319.454 374.955 318.077 374.29 316.702 373.718C308.262 370.204 299.211 370.116 290.321 372.247" fill="#E0E0E0"/>
<path d="M284.809 378.298C286.686 378.836 287.328 379.807 288.814 381.074C293.857 385.37 299.906 388.477 306.335 390.075C307.004 390.241 307.882 390.308 308.214 389.703C308.504 389.175 308.137 388.535 307.761 388.065C305.067 384.694 301.225 382.389 297.182 380.883C293.138 379.377 289.635 377.562 284.809 377.952" fill="#E0E0E0"/>
<path d="M279.394 343.172C286.137 349.466 295.634 352.697 304.816 351.821C305.234 351.781 305.689 351.715 305.973 351.406C306.613 350.71 305.845 349.636 305.1 349.054C297.626 343.227 288.573 340.811 279.394 343.172Z" fill="#E0E0E0"/>
<path d="M285.814 340.822C294.727 334.14 306.949 332.123 317.536 335.588C313.541 339.525 307.999 341.643 302.42 342.224C296.841 342.806 291.255 342.187 285.814 340.822Z" fill="#E0E0E0"/>
<path d="M283.263 324.682C282.529 317.222 283.005 311.333 282.487 303.838C282.446 303.239 282.317 302.519 281.757 302.303C280.977 302.002 280.327 302.961 280.071 303.757C277.85 310.666 279.064 318.591 283.252 324.518" fill="#E0E0E0"/>
<path d="M282.726 325.506C287.783 322.379 291.576 318.295 295.084 313.495C297.525 310.155 299.583 306.154 299.028 302.055C295.6 301.986 292.343 303.877 290.114 306.482C287.885 309.086 286.559 312.342 285.57 315.625C284.58 318.907 283.887 322.28 282.726 325.506Z" fill="#E0E0E0"/>
<path d="M294.867 322.133C305.964 318.029 316.317 311.925 325.279 304.2C321.646 302.737 317.487 303.612 313.855 305.079C305.557 308.428 298.778 314.082 294.708 322.052" fill="#E0E0E0"/>
<path d="M286.14 329.587C291.754 330.201 297.457 330.6 303.027 329.669C308.502 328.754 313.676 326.584 318.792 324.431C319.216 324.253 319.677 324.039 319.863 323.618C320.065 323.161 319.85 322.604 319.479 322.269C319.109 321.934 318.616 321.774 318.135 321.639C312.573 320.083 306.571 320.812 301.098 322.657C295.625 324.502 291.138 326.695 286.14 329.587Z" fill="#E0E0E0"/>
<path d="M254.083 343.427C250.253 335.695 250.502 326.673 253.81 318.704C256.139 322.253 256.424 326.773 255.998 330.996C255.572 335.22 254.286 339.567 254.203 343.811" fill="#E0E0E0"/>
<path d="M238.781 335.71C229.218 335.527 219.652 339.602 213.158 346.625C217.931 347.375 222.847 346.144 227.188 344.024C231.53 341.904 235.388 338.93 239.212 335.977" fill="#E0E0E0"/>
<path d="M228.494 332.269C223.816 331.89 219.314 331.31 214.816 332.689C210.318 334.067 206.224 337.196 204.39 341.529C208.766 342.022 213.203 340.925 217.214 339.108C221.224 337.29 224.871 334.773 228.494 332.269Z" fill="#E0E0E0"/>
<path d="M243.725 332.426C239.516 329.668 235.194 326.86 230.294 325.718C225.394 324.576 219.715 325.42 216.298 329.113C220.265 331.441 225.078 331.716 229.677 331.712C234.276 331.708 239.915 331.656 244.251 333.191" fill="#E0E0E0"/>
<path d="M243.75 332.649C236.555 325.584 233.827 312.891 236.722 303.232C242.378 311.825 244.911 322.427 243.75 332.649Z" fill="#E0E0E0"/>
<path d="M263.535 312.63C264.892 309.475 265.846 306.164 267.064 302.953C268.281 299.742 269.795 296.582 272.095 294.032C274.395 291.482 277.576 289.584 281.006 289.414C278.859 299.136 272.402 307.823 263.711 312.68" fill="#E0E0E0"/>
<path d="M259.955 316.801C257.709 313.71 255.115 309.514 252.07 307.207C249.025 304.9 245.059 303.504 241.343 304.39C245.122 311.147 252.265 315.91 259.955 316.801Z" fill="#E0E0E0"/>
<path d="M260.671 312.887C259.199 309.147 257.717 305.367 257.121 301.392C256.526 297.417 256.888 293.171 258.92 289.704C262.87 297.17 264.142 305.184 260.871 312.972" fill="#E0E0E0"/>
<path d="M263.572 289.704C265.809 282.303 272.586 276.854 279.903 274.353C280.825 274.038 281.803 273.775 282.766 273.924C283.73 274.073 284.674 274.732 284.876 275.685C285.143 276.944 284.103 278.072 283.125 278.909C277.427 283.78 270.73 287.478 263.572 289.704Z" fill="#E0E0E0"/>
<path d="M263.652 283.651C263.937 278.879 264.234 274.038 265.786 269.516C267.338 264.995 270.329 260.753 274.681 258.774C275.421 263.594 273.295 268.389 270.73 272.536C268.166 276.683 265.075 280.598 263.534 285.224" fill="#E0E0E0"/>
<path d="M263.535 286.936C261.686 281.542 261.495 274.691 258.265 269.992C256.007 266.707 252.391 264.47 250.446 260.991C249.154 264.24 249.549 267.984 250.901 271.21C252.252 274.435 254.486 277.211 256.876 279.764C259.267 282.316 261.313 284.236 263.535 286.936Z" fill="#E0E0E0"/>
<path d="M263.572 445.782C263.428 445.782 263.304 409.799 263.294 365.423C263.284 321.031 263.392 285.056 263.536 285.056C263.68 285.056 263.804 321.031 263.814 365.423C263.823 409.8 263.715 445.782 263.572 445.782Z" fill="#E0E0E0"/>
<path d="M295.016 337.997C295.026 338.032 294.544 338.211 293.663 338.505C292.691 338.833 291.44 339.255 289.94 339.761C286.801 340.831 282.488 342.379 277.807 344.297C273.173 346.285 268.802 347.899 266.313 350.056C265.07 351.12 264.356 352.272 264.003 353.112C263.646 353.957 263.582 354.474 263.535 354.465C263.517 354.462 263.523 354.333 263.55 354.088C263.591 353.846 263.654 353.483 263.814 353.039C264.118 352.152 264.812 350.92 266.068 349.782C267.319 348.641 269.06 347.617 271.055 346.684C273.05 345.753 275.261 344.782 277.609 343.817C282.304 341.893 286.65 340.394 289.825 339.412C291.411 338.917 292.706 338.552 293.604 338.312C294.504 338.076 295.006 337.963 295.016 337.997Z" fill="#E0E0E0"/>
<path d="M305.323 312.68C305.335 312.694 305.204 312.832 304.944 313.085C304.637 313.373 304.256 313.731 303.789 314.17C302.716 315.144 301.257 316.47 299.478 318.086C295.756 321.4 290.709 325.894 285.131 330.86C279.531 335.845 274.691 340.608 271.337 344.195C269.657 345.986 268.335 347.47 267.433 348.505C267.012 348.986 266.667 349.38 266.39 349.696C266.148 349.966 266.015 350.102 266.001 350.091C265.987 350.08 266.093 349.922 266.309 349.63C266.527 349.341 266.844 348.91 267.278 348.375C268.134 347.297 269.418 345.773 271.067 343.945C274.361 340.285 279.174 335.466 284.785 330.472C290.405 325.498 295.519 321.031 299.235 317.81C301.059 316.245 302.555 314.961 303.655 314.018C304.148 313.609 304.551 313.275 304.874 313.007C305.157 312.78 305.311 312.667 305.323 312.68Z" fill="#E0E0E0"/>
<path d="M279.086 335.929C278.939 335.864 280.109 333.162 281.275 329.746C282.452 326.33 283.005 323.447 283.154 323.472C283.29 323.486 282.959 326.453 281.767 329.913C281.181 331.64 280.534 333.159 280.025 334.237C279.516 335.315 279.15 335.957 279.086 335.929Z" fill="#E0E0E0"/>
<path d="M263.604 357.708C263.575 357.729 263.269 357.371 262.741 356.706C262.155 355.955 261.414 355.005 260.53 353.871C258.673 351.47 256.106 348.157 253.228 344.531C250.349 340.904 247.704 337.652 245.788 335.298C244.884 334.18 244.127 333.242 243.529 332.502C243.001 331.837 242.722 331.458 242.75 331.434C242.777 331.411 243.108 331.745 243.683 332.37C244.259 332.994 245.075 333.914 246.07 335.061C248.06 337.356 250.753 340.576 253.636 344.207C256.517 347.838 259.041 351.191 260.825 353.65C261.717 354.879 262.427 355.883 262.905 356.586C263.382 357.288 263.633 357.687 263.604 357.708Z" fill="#E0E0E0"/>
<path d="M256.71 348.857C256.625 348.948 254.786 346.766 253.822 343.45C253.111 341.113 253.08 338.976 253.167 337.998L253.397 338.017C253.294 338.434 253.219 338.653 253.178 338.647C253.137 338.64 253.135 338.408 253.169 337.98L253.399 337.999C253.483 338.968 253.63 341.032 254.321 343.302C255.25 346.514 256.849 348.769 256.71 348.857Z" fill="#E0E0E0"/>
<path d="M247.809 337.66C247.742 337.732 247.15 336.986 245.792 336.489C244.445 335.968 242.418 335.853 240.193 336.044C237.967 336.207 235.978 336.604 234.555 336.954C233.132 337.307 232.262 337.584 232.235 337.511C232.211 337.45 233.04 337.049 234.456 336.6C235.871 336.155 237.887 335.692 240.154 335.526C242.404 335.332 244.537 335.505 245.93 336.149C247.341 336.773 247.855 337.647 247.809 337.66Z" fill="#E0E0E0"/>
<path d="M245.699 334.946C245.659 335.027 244.524 334.475 242.609 333.821C240.698 333.163 237.975 332.474 234.901 332.234C231.825 332.005 229.029 332.274 227.04 332.634C225.048 332.991 223.843 333.364 223.816 333.278C223.805 333.244 224.096 333.122 224.635 332.929C225.171 332.729 225.969 332.5 226.968 332.274C228.963 331.816 231.809 331.482 234.941 331.716C238.071 331.959 240.833 332.721 242.736 333.476C243.689 333.851 244.443 334.198 244.943 334.477C245.446 334.749 245.715 334.914 245.699 334.946Z" fill="#E0E0E0"/>
<path d="M263.535 323.472C263.396 323.507 262.387 320.003 261.282 315.645C260.176 311.286 259.393 307.725 259.533 307.69C259.672 307.655 260.681 311.158 261.786 315.517C262.891 319.874 263.675 323.436 263.535 323.472Z" fill="#E0E0E0"/>
<path d="M263.679 323.472C263.524 323.522 262.875 321.181 261.182 318.786C259.534 316.341 257.429 315.114 257.506 314.993C257.533 314.938 258.114 315.152 258.925 315.725C259.738 316.29 260.742 317.249 261.608 318.488C263.365 320.979 263.805 323.463 263.679 323.472Z" fill="#E0E0E0"/>
<path d="M263.572 426.601C263.516 426.609 263.41 425.736 263.004 424.208C262.603 422.68 261.848 420.513 260.6 417.978C258.114 412.898 253.59 406.457 247.842 400.005C244.994 396.751 242.23 393.681 239.885 390.742C237.536 387.807 235.605 385.01 234.195 382.536C232.781 380.064 231.86 377.943 231.323 376.446C231.059 375.696 230.865 375.11 230.759 374.704C230.645 374.301 230.594 374.088 230.611 374.083C230.658 374.068 230.919 374.906 231.512 376.373C232.104 377.839 233.069 379.92 234.513 382.35C235.953 384.782 237.9 387.537 240.259 390.441C242.614 393.35 245.381 396.403 248.235 399.663C253.998 406.132 258.511 412.655 260.932 417.819C262.149 420.396 262.858 422.605 263.202 424.16C263.369 424.939 263.481 425.547 263.521 425.965C263.571 426.38 263.589 426.598 263.572 426.601Z" fill="#E0E0E0"/>
<path d="M291.986 394.507C292.003 394.545 291.459 394.821 290.497 395.343C289.542 395.88 288.187 396.706 286.634 397.896C285.081 399.085 283.345 400.646 281.561 402.523C279.781 404.404 277.946 406.588 276.074 408.929C272.332 413.625 268.831 417.78 266.735 421.097C265.671 422.742 264.897 424.129 264.39 425.102C263.879 426.073 263.608 426.618 263.57 426.601C263.554 426.594 263.602 426.449 263.708 426.179C263.819 425.911 263.969 425.509 264.208 425.012C264.661 424.007 265.391 422.583 266.423 420.9C268.458 417.503 271.931 413.291 275.667 408.603C277.542 406.258 279.399 404.069 281.213 402.191C283.03 400.316 284.813 398.765 286.411 397.601C288.01 396.435 289.409 395.648 290.4 395.163C290.893 394.915 291.296 394.763 291.562 394.648C291.834 394.539 291.979 394.49 291.986 394.507Z" fill="#E0E0E0"/>
<path d="M292.542 404.918C292.549 404.994 291.34 405.14 289.394 405.375C287.455 405.626 284.756 405.95 281.929 406.845C279.112 407.762 276.77 409.16 275.245 410.353C273.704 411.544 272.978 412.529 272.906 412.471C272.881 412.453 273.032 412.185 273.372 411.747C273.709 411.306 274.26 410.717 275.012 410.068C276.513 408.775 278.877 407.293 281.769 406.35C284.665 405.433 287.401 405.167 289.357 405.009C291.321 404.868 292.536 404.851 292.542 404.918Z" fill="#E0E0E0"/>
<path d="M273.825 411.328C273.661 411.235 275.079 409.068 276.18 406.154C277.213 403.213 277.454 400.634 277.64 400.664C277.707 400.672 277.704 401.317 277.588 402.353C277.465 403.385 277.216 404.82 276.67 406.331C276.12 407.84 275.399 409.102 274.844 409.98C274.282 410.857 273.884 411.364 273.825 411.328Z" fill="#E0E0E0"/>
<path d="M301.188 366.555C301.194 366.572 301.021 366.664 300.684 366.823C300.293 367 299.804 367.223 299.205 367.495C298.557 367.773 297.77 368.125 296.885 368.592C295.996 369.051 294.958 369.523 293.877 370.172C293.328 370.484 292.756 370.81 292.16 371.148C291.565 371.49 290.976 371.897 290.349 372.289C289.083 373.057 287.815 374.003 286.461 374.968C283.812 376.978 281.028 379.357 278.346 382.105C275.691 384.88 273.407 387.745 271.489 390.461C270.57 391.847 269.668 393.147 268.944 394.438C268.573 395.078 268.187 395.681 267.865 396.287C267.547 396.894 267.241 397.478 266.948 398.037C266.336 399.139 265.9 400.192 265.472 401.097C265.035 401.998 264.71 402.796 264.455 403.453C264.203 404.061 263.998 404.558 263.834 404.954C263.686 405.296 263.601 405.472 263.584 405.466C263.567 405.46 263.62 405.272 263.736 404.918C263.876 404.512 264.052 404.003 264.267 403.379C264.494 402.708 264.793 401.896 265.207 400.979C265.612 400.059 266.027 398.989 266.621 397.871C266.906 397.304 267.204 396.711 267.514 396.095C267.829 395.479 268.208 394.868 268.574 394.219C269.287 392.909 270.181 391.592 271.096 390.188C273.007 387.437 275.298 384.539 277.974 381.743C280.676 378.974 283.494 376.586 286.177 374.582C287.548 373.62 288.835 372.681 290.119 371.924C290.755 371.537 291.353 371.136 291.958 370.801C292.563 370.47 293.145 370.152 293.702 369.848C294.8 369.216 295.855 368.764 296.76 368.328C297.662 367.884 298.464 367.557 299.126 367.307C299.742 367.07 300.245 366.877 300.646 366.723C300.995 366.597 301.182 366.538 301.188 366.555Z" fill="#E0E0E0"/>
<path d="M278.7 381.622C278.654 381.614 278.904 380.741 279.936 379.78C280.943 378.821 282.78 377.933 284.918 377.869C287.05 377.813 288.899 378.409 290.161 378.893C291.43 379.392 292.168 379.796 292.143 379.856C292.114 379.928 291.323 379.644 290.04 379.24C288.762 378.848 286.955 378.333 284.934 378.388C282.921 378.45 281.183 379.225 280.175 380.058C279.146 380.889 278.783 381.672 278.7 381.622Z" fill="#E0E0E0"/>
<path d="M275.339 385.09C275.196 385.011 276.465 383.151 276.753 380.487C277.085 377.827 276.279 375.726 276.436 375.682C276.493 375.658 276.776 376.147 277.02 377.022C277.266 377.893 277.428 379.161 277.269 380.547C277.105 381.931 276.655 383.128 276.215 383.919C275.777 384.715 275.389 385.126 275.339 385.09Z" fill="#E0E0E0"/>
<path d="M238.72 431.756C239.495 445.507 243.639 459.492 250.013 473.631H277.73C283.808 459.632 287.666 445.669 288.352 431.756H238.72Z" fill="#E0E0E0"/>
<path d="M283.859 454.008C283.859 454.152 274.733 454.268 263.479 454.268C252.221 454.268 243.097 454.152 243.097 454.008C243.097 453.865 252.221 453.748 263.479 453.748C274.733 453.748 283.859 453.864 283.859 454.008Z" fill="#FAFAFA"/>
<path d="M283.239 458.99C283.239 459.134 274.684 459.25 264.133 459.25C253.579 459.25 245.025 459.133 245.025 458.99C245.025 458.846 253.578 458.73 264.133 458.73C274.684 458.73 283.239 458.846 283.239 458.99Z" fill="#FAFAFA"/>
<path d="M250.46 440.785C250.604 440.785 250.72 443.643 250.72 447.169C250.72 450.696 250.603 453.553 250.46 453.553C250.317 453.553 250.2 450.695 250.2 447.169C250.2 443.644 250.316 440.785 250.46 440.785Z" fill="#FAFAFA"/>
<path d="M265.31 440.785C265.454 440.785 265.57 443.745 265.57 447.396C265.57 451.048 265.454 454.008 265.31 454.008C265.167 454.008 265.05 451.048 265.05 447.396C265.05 443.745 265.166 440.785 265.31 440.785Z" fill="#FAFAFA"/>
<path d="M279.251 440.673C279.395 440.673 279.511 443.692 279.511 447.416C279.511 451.141 279.395 454.159 279.251 454.159C279.107 454.159 278.991 451.141 278.991 447.416C278.991 443.692 279.108 440.673 279.251 440.673Z" fill="#FAFAFA"/>
<path d="M287.471 440.785C287.471 440.929 276.768 441.045 263.567 441.045C250.362 441.045 239.661 440.929 239.661 440.785C239.661 440.641 250.362 440.525 263.567 440.525C276.768 440.525 287.471 440.641 287.471 440.785Z" fill="#FAFAFA"/>
</g>
<g style="mix-blend-mode:luminosity">
<path d="M146.699 101.635H0V106.28H146.699V101.635Z" fill="#E0E0E0"/>
<path d="M32.202 103.957H24.774V118.667H32.202V103.957Z" fill="#E0E0E0"/>
<path d="M120.277 101.635H112.849V118.668H120.277V101.635Z" fill="#E0E0E0"/>
<path d="M21.41 70.428L26.213 101.989H54.115L60.591 70.884L21.41 70.428Z" fill="#EBEBEB"/>
<path d="M56.6889 90.655C56.6889 90.745 49.5389 90.819 40.7219 90.819C31.9019 90.819 24.7539 90.746 24.7539 90.655C24.7539 90.565 31.9019 90.491 40.7219 90.491C49.5399 90.491 56.6889 90.565 56.6889 90.655Z" fill="#FAFAFA"/>
<path d="M56.797 89.103C56.797 89.194 49.599 89.267 40.722 89.267C31.842 89.267 24.645 89.194 24.645 89.103C24.645 89.013 31.841 88.94 40.722 88.94C49.599 88.939 56.797 89.012 56.797 89.103Z" fill="#FAFAFA"/>
<path d="M56.742 87.35C56.742 87.44 49.544 87.514 40.667 87.514C31.787 87.514 24.59 87.441 24.59 87.35C24.59 87.26 31.786 87.186 40.667 87.186C49.544 87.186 56.742 87.259 56.742 87.35Z" fill="#FAFAFA"/>
<path d="M29.4179 100.188C29.3289 100.203 28.9459 98.4241 28.5619 96.2141C28.1779 94.0031 27.9399 92.2001 28.0289 92.1841C28.1179 92.1691 28.5009 93.9481 28.8849 96.1581C29.2679 98.3681 29.5069 100.172 29.4179 100.188Z" fill="#FAFAFA"/>
<path d="M31.316 99.852C31.224 99.854 31.117 98.115 30.97 95.975C30.826 93.833 30.696 92.097 30.788 92.086C30.876 92.076 31.152 93.802 31.297 95.953C31.444 98.103 31.404 99.851 31.316 99.852Z" fill="#FAFAFA"/>
<path d="M34.775 99.851C34.688 99.866 34.307 98.094 34.049 95.875C33.787 93.656 33.749 91.844 33.836 91.839C33.929 91.833 34.113 93.628 34.374 95.837C34.632 98.046 34.867 99.836 34.775 99.851Z" fill="#FAFAFA"/>
<path d="M37.204 100.018C37.116 100.026 36.889 98.22 36.817 95.979C36.743 93.737 36.852 91.921 36.941 91.923C37.034 91.925 37.071 93.736 37.145 95.969C37.216 98.199 37.296 100.01 37.204 100.018Z" fill="#FAFAFA"/>
<path d="M41.5029 99.853C41.4129 99.856 41.281 98.139 41.209 96.02C41.137 93.899 41.152 92.178 41.243 92.175C41.333 92.172 41.465 93.888 41.536 96.009C41.608 98.128 41.5929 99.85 41.5029 99.853Z" fill="#FAFAFA"/>
<path d="M44.643 100.019C44.553 100.018 44.494 98.243 44.511 96.053C44.529 93.863 44.617 92.0881 44.707 92.0891C44.797 92.0901 44.856 93.865 44.838 96.055C44.821 98.245 44.733 100.019 44.643 100.019Z" fill="#FAFAFA"/>
<path d="M47.587 99.597C47.497 99.588 47.604 97.732 47.825 95.452C48.046 93.171 48.299 91.33 48.389 91.338C48.479 91.347 48.372 93.202 48.151 95.483C47.929 97.764 47.677 99.606 47.587 99.597Z" fill="#FAFAFA"/>
<path d="M51.3829 99.184C51.2969 99.173 51.4319 97.581 51.8529 95.659C52.2689 93.736 52.8069 92.231 52.8899 92.257C52.9799 92.284 52.5859 93.82 52.1729 95.728C51.7549 97.636 51.4759 99.197 51.3829 99.184Z" fill="#FAFAFA"/>
<path d="M48.696 8.15106C48.701 8.15306 48.69 8.20606 48.662 8.30606C48.627 8.42506 48.584 8.57206 48.532 8.75206C48.403 9.16606 48.226 9.73506 48.001 10.4551C47.762 11.1921 47.477 12.0951 47.182 13.1551C46.882 14.2131 46.508 15.4091 46.176 16.7531C45.822 18.0911 45.438 19.5581 45.089 21.1481C44.702 22.7291 44.376 24.4381 44.013 26.2311C43.344 29.8281 42.734 33.8071 42.304 38.0091C41.896 42.2141 41.707 46.2361 41.652 49.8951C41.654 51.7251 41.635 53.4641 41.702 55.0911C41.73 56.7191 41.817 58.2321 41.899 59.6141C41.959 60.9971 42.089 62.2441 42.174 63.3401C42.254 64.4371 42.355 65.3791 42.443 66.1491C42.521 66.8991 42.582 67.4921 42.626 67.9241C42.642 68.1111 42.655 68.2631 42.666 68.3871C42.673 68.4921 42.674 68.5451 42.669 68.5461C42.663 68.5471 42.651 68.4951 42.633 68.3911C42.614 68.2691 42.59 68.1181 42.561 67.9331C42.502 67.5031 42.42 66.9121 42.316 66.1651C42.208 65.3971 42.089 64.4561 41.991 63.3591C41.888 62.2631 41.742 61.0161 41.667 59.6311C41.569 58.2481 41.47 56.7321 41.429 55.1011C41.35 53.4711 41.358 51.7281 41.348 49.8941C41.387 46.2261 41.567 42.1931 41.976 37.9781C42.408 33.7661 43.029 29.7791 43.715 26.1761C44.087 24.3801 44.424 22.6701 44.823 21.0881C45.185 19.4981 45.582 18.0311 45.951 16.6941C46.298 15.3511 46.688 14.1581 47.005 13.1041C47.318 12.0481 47.621 11.1491 47.879 10.4171C48.128 9.70506 48.325 9.14206 48.468 8.73206C48.533 8.55606 48.586 8.41306 48.629 8.29706C48.669 8.19806 48.69 8.14906 48.696 8.15106Z" fill="#EBEBEB"/>
<path d="M43.66 27.6941C44.413 25.4391 45.976 23.4651 47.998 22.2151C48.689 21.7881 49.561 21.4401 50.293 21.7931C51.266 22.2641 51.345 23.6331 51.054 24.6751C50.566 26.4271 49.421 27.9871 47.896 28.9791C46.372 29.9711 44.956 30.4381 43.157 30.1741" fill="#EBEBEB"/>
<path d="M41.965 40.8901C42.686 38.1661 44.859 34.2941 47.115 32.6081C47.472 32.3411 47.853 32.0891 48.286 31.9841C48.719 31.8791 49.216 31.9461 49.538 32.2551C49.999 32.6971 49.953 33.4391 49.818 34.0631C48.956 38.0361 45.645 41.3691 41.677 42.2581" fill="#EBEBEB"/>
<path d="M41.498 52.5061C42.608 49.9181 44.423 47.6371 46.694 45.9721C47.227 45.5811 47.857 45.2081 48.507 45.3261C49.493 45.5051 49.94 46.7081 49.853 47.7071C49.673 49.7611 48.104 51.4091 46.485 52.6851C44.741 54.0601 41.679 55.1551 41.679 55.1551" fill="#EBEBEB"/>
<path d="M41.76 60.8561C42.9 58.914 44.319 57.0891 46.181 55.8231C46.585 55.5481 47.023 55.2951 47.507 55.2291C47.991 55.1631 48.534 55.32 48.808 55.724C49.251 56.375 48.829 57.2551 48.354 57.8831C46.713 60.0541 44.643 61.696 42.046 62.511" fill="#EBEBEB"/>
<path d="M41.542 57.464C39.638 55.13 37.5191 52.971 35.2201 51.024C34.8611 50.72 34.4071 50.4021 33.9601 50.5471C33.6141 50.6601 33.404 51.034 33.38 51.397C33.356 51.76 33.481 52.116 33.62 52.452C35.002 55.792 38.2571 58.407 41.7591 59.299" fill="#EBEBEB"/>
<path d="M41.743 46.597C40.087 44.579 38.432 42.561 36.776 40.542C36.303 39.966 35.815 39.376 35.165 39.013C34.515 38.65 33.656 38.559 33.046 38.988C32.438 39.416 32.233 40.256 32.366 40.987C32.5 41.718 32.911 42.3661 33.335 42.9761C34.344 44.4301 35.496 45.817 36.954 46.82C38.412 47.823 39.737 48.475 41.488 48.217" fill="#EBEBEB"/>
<path d="M42.4341 34.3641C41.4701 31.4811 39.7261 28.8621 37.4361 26.8611C37.0531 26.5261 36.6331 26.1981 36.1341 26.1011C35.1391 25.9081 34.1781 26.7401 33.8561 27.7011C33.4931 28.7821 33.7411 30.0001 34.3101 30.9891C34.8781 31.9771 35.7391 32.7651 36.6441 33.4571C38.3131 34.7341 40.1861 35.7441 42.1691 36.4401" fill="#EBEBEB"/>
<path d="M44.418 23.4551C43.937 19.9451 42.11 17.0241 39.993 14.1841C39.547 13.5861 38.924 12.9501 38.186 13.0631C37.716 13.1341 37.336 13.5151 37.149 13.9531C36.962 14.3911 36.94 14.8801 36.952 15.3561C37.063 19.5971 39.989 23.6251 43.988 25.0421" fill="#EBEBEB"/>
<path d="M45.808 17.885C45.634 16.08 45.46 14.263 45.627 12.458C45.793 10.653 46.323 8.84005 47.429 7.40305C47.904 6.78505 48.5 6.23305 49.232 5.96505C49.964 5.69705 50.847 5.75905 51.444 6.25805C51.998 6.72105 52.229 7.48505 52.201 8.20605C52.173 8.92705 51.918 9.61905 51.641 10.285C50.319 13.47 48.112 16.995 45.808 17.885Z" fill="#EBEBEB"/>
<path d="M24.172 22.0681C24.183 22.0681 24.192 22.2221 24.199 22.5131C24.203 22.8371 24.207 23.2601 24.213 23.7871C24.212 24.3401 24.215 25.0161 24.244 25.8011C24.27 26.5861 24.275 27.4801 24.34 28.4661C24.426 30.4401 24.617 32.7861 24.917 35.3811C25.238 37.9731 25.68 40.8111 26.291 43.7631C26.918 46.7121 27.654 49.4901 28.401 51.9931C29.17 54.4891 29.937 56.7151 30.651 58.5571C30.988 59.4861 31.342 60.3071 31.634 61.0361C31.923 61.7661 32.191 62.3871 32.415 62.8931C32.621 63.3781 32.787 63.7671 32.914 64.0651C33.025 64.3351 33.078 64.4781 33.068 64.4831C33.058 64.4881 32.985 64.3531 32.855 64.0931C32.714 63.8011 32.529 63.4201 32.3 62.9451C32.058 62.4461 31.772 61.8321 31.467 61.1071C31.159 60.3841 30.789 59.5671 30.437 58.6401C29.693 56.8041 28.901 54.5791 28.114 52.0801C27.348 49.5741 26.601 46.7891 25.972 43.8291C25.359 40.8671 24.924 38.0171 24.619 35.4151C24.335 32.8101 24.167 30.4551 24.11 28.4751C24.06 27.4861 24.07 26.5891 24.062 25.8031C24.05 25.0161 24.065 24.3391 24.086 23.7851C24.106 23.2581 24.121 22.8351 24.133 22.5111C24.148 22.2201 24.161 22.0681 24.172 22.0681Z" fill="#E0E0E0"/>
<path d="M24.95 36.4571C24.977 34.7601 25.617 33.0791 26.724 31.7931C27.103 31.3531 27.621 30.9291 28.196 31.0121C28.96 31.1231 29.308 32.0391 29.335 32.8101C29.379 34.1081 28.936 35.4171 28.111 36.4201C27.287 37.4231 26.424 38.0461 25.142 38.2541" fill="#E0E0E0"/>
<path d="M26.6371 45.806C26.5411 43.797 27.1871 40.692 28.3611 39.059C28.5471 38.801 28.7521 38.547 29.0241 38.382C29.2961 38.218 29.6491 38.156 29.9351 38.297C30.3441 38.498 30.4731 39.014 30.5151 39.468C30.7831 42.359 29.2461 45.341 26.7361 46.8" fill="#E0E0E0"/>
<path d="M28.819 53.8161C29.018 51.8151 29.762 49.8711 30.95 48.2491C31.229 47.8681 31.578 47.4791 32.045 47.4191C32.755 47.3291 33.318 48.0521 33.474 48.7501C33.794 50.1871 33.08 51.6471 32.252 52.8651C31.36 54.1771 29.512 55.5811 29.512 55.5811" fill="#E0E0E0"/>
<path d="M30.795 59.444C31.153 57.877 31.727 56.329 32.721 55.066C32.937 54.792 33.181 54.525 33.496 54.376C33.812 54.227 34.214 54.217 34.489 54.433C34.931 54.781 34.833 55.471 34.644 56.001C33.994 57.833 32.938 59.396 31.345 60.509" fill="#E0E0E0"/>
<path d="M29.916 57.1821C28.117 56.0031 26.21 54.9891 24.226 54.1581C23.916 54.0281 23.539 53.9091 23.266 54.1051C23.055 54.2561 22.992 54.5561 23.054 54.8081C23.116 55.0611 23.278 55.2761 23.445 55.4751C25.105 57.4511 27.884 58.5311 30.461 58.3851" fill="#E0E0E0"/>
<path d="M27.7141 49.74C26.1521 48.722 24.5911 47.705 23.0291 46.687C22.5831 46.396 22.1241 46.1 21.6031 45.993C21.0821 45.886 20.4781 46.009 20.1551 46.432C19.8331 46.854 19.8741 47.47 20.1221 47.939C20.3701 48.408 20.7901 48.76 21.2101 49.085C22.2101 49.858 23.2931 50.554 24.5021 50.924C25.7111 51.293 26.7531 51.452 27.8901 50.899" fill="#E0E0E0"/>
<path d="M25.551 41.262C24.274 39.506 22.523 38.099 20.533 37.229C20.2 37.084 19.844 36.95 19.483 36.992C18.764 37.075 18.289 37.848 18.276 38.572C18.262 39.386 18.693 40.1621 19.293 40.7131C19.893 41.2641 20.648 41.615 21.414 41.891C22.825 42.401 24.318 42.686 25.818 42.732" fill="#E0E0E0"/>
<path d="M24.554 33.4081C23.471 31.1221 21.598 29.5271 19.546 28.0481C19.113 27.7371 18.553 27.4381 18.074 27.6731C17.769 27.8231 17.592 28.1641 17.56 28.5021C17.527 28.8401 17.617 29.1781 17.728 29.4991C18.716 32.3631 21.576 34.4761 24.603 34.5791" fill="#E0E0E0"/>
<path d="M24.302 29.3171C23.795 28.1261 23.286 26.9261 23.01 25.6611C22.735 24.3961 22.705 23.0481 23.149 21.8321C23.34 21.3091 23.627 20.8051 24.067 20.4651C24.508 20.1251 25.122 19.9771 25.637 20.1881C26.114 20.3841 26.436 20.8541 26.572 21.3511C26.708 21.8481 26.684 22.3741 26.639 22.8871C26.422 25.3401 25.678 28.2141 24.302 29.3171Z" fill="#E0E0E0"/>
<path d="M59.4489 21.762C59.4599 21.762 59.4729 21.914 59.4879 22.206C59.4999 22.53 59.516 22.953 59.535 23.48C59.556 24.034 59.5709 24.711 59.5589 25.498C59.5509 26.284 59.561 27.181 59.511 28.171C59.454 30.151 59.2859 32.506 59.0029 35.111C58.6969 37.713 58.263 40.563 57.65 43.525C57.021 46.484 56.273 49.27 55.508 51.776C54.721 54.276 53.929 56.5 53.185 58.336C52.833 59.262 52.464 60.079 52.155 60.802C51.85 61.527 51.5639 62.142 51.3219 62.64C51.0919 63.115 50.908 63.496 50.767 63.788C50.637 64.049 50.563 64.183 50.553 64.178C50.543 64.173 50.596 64.029 50.707 63.76C50.834 63.462 50.999 63.073 51.206 62.588C51.429 62.082 51.698 61.462 51.987 60.731C52.279 60.002 52.633 59.181 52.97 58.252C53.684 56.409 54.452 54.184 55.22 51.688C55.967 49.185 56.703 46.408 57.33 43.458C57.941 40.506 58.383 37.668 58.704 35.076C59.003 32.482 59.1949 30.135 59.2809 28.161C59.3459 27.175 59.352 26.281 59.377 25.496C59.407 24.711 59.41 24.035 59.408 23.482C59.414 22.955 59.419 22.532 59.422 22.208C59.429 21.915 59.4379 21.762 59.4489 21.762Z" fill="#EBEBEB"/>
<path d="M58.6709 36.151C58.6439 34.454 58.004 32.773 56.897 31.487C56.518 31.047 56 30.623 55.425 30.706C54.661 30.817 54.313 31.733 54.286 32.504C54.241 33.802 54.685 35.111 55.509 36.114C56.334 37.117 57.197 37.74 58.478 37.948" fill="#EBEBEB"/>
<path d="M56.984 45.5C57.08 43.491 56.434 40.386 55.261 38.753C55.075 38.495 54.87 38.241 54.598 38.076C54.326 37.911 53.972 37.85 53.687 37.991C53.278 38.192 53.149 38.708 53.107 39.162C52.839 42.053 54.375 45.035 56.886 46.494" fill="#EBEBEB"/>
<path d="M54.8019 53.51C54.6029 51.509 53.8589 49.565 52.6709 47.943C52.3919 47.563 52.0429 47.173 51.5759 47.113C50.8659 47.022 50.3029 47.746 50.1469 48.444C49.8269 49.882 50.5409 51.341 51.3689 52.559C52.2609 53.871 54.1099 55.275 54.1099 55.275" fill="#EBEBEB"/>
<path d="M52.826 59.138C52.468 57.571 51.894 56.023 50.9 54.76C50.684 54.486 50.44 54.219 50.125 54.07C49.809 53.921 49.407 53.911 49.132 54.127C48.69 54.475 48.789 55.165 48.977 55.695C49.627 57.527 50.683 59.09 52.276 60.203" fill="#EBEBEB"/>
<path d="M53.7049 56.876C55.5039 55.697 57.4109 54.683 59.3949 53.852C59.7049 53.722 60.0819 53.603 60.3549 53.799C60.5659 53.95 60.6289 54.25 60.5669 54.502C60.5049 54.755 60.3429 54.97 60.1759 55.169C58.5159 57.145 55.7369 58.226 53.1599 58.079" fill="#EBEBEB"/>
<path d="M55.9069 49.434C57.4689 48.416 59.0299 47.398 60.5919 46.381C61.0379 46.09 61.4969 45.794 62.0179 45.687C62.5389 45.58 63.1439 45.703 63.4659 46.126C63.7879 46.548 63.7469 47.164 63.4989 47.633C63.2509 48.102 62.8309 48.455 62.4109 48.779C61.4109 49.551 60.3279 50.248 59.1199 50.618C57.9109 50.987 56.8689 51.146 55.7319 50.593" fill="#EBEBEB"/>
<path d="M58.0699 40.956C59.3469 39.2 61.098 37.793 63.088 36.924C63.421 36.778 63.777 36.645 64.138 36.687C64.857 36.77 65.332 37.543 65.345 38.267C65.359 39.081 64.928 39.857 64.328 40.408C63.728 40.958 62.973 41.309 62.207 41.586C60.796 42.096 59.303 42.381 57.804 42.427" fill="#EBEBEB"/>
<path d="M59.0669 33.102C60.1499 30.816 62.0229 29.22 64.0749 27.742C64.5079 27.43 65.0679 27.132 65.5469 27.367C65.8519 27.517 66.0289 27.858 66.0619 28.196C66.0939 28.534 66.0039 28.872 65.8939 29.193C64.9059 32.056 62.0459 34.169 59.0189 34.273" fill="#EBEBEB"/>
<path d="M59.32 29.011C59.827 27.82 60.337 26.62 60.612 25.355C60.887 24.09 60.917 22.742 60.473 21.525C60.282 21.002 59.996 20.498 59.555 20.158C59.114 19.818 58.5 19.67 57.985 19.881C57.508 20.077 57.186 20.547 57.05 21.044C56.914 21.541 56.938 22.067 56.983 22.58C57.199 25.033 57.943 27.908 59.32 29.011Z" fill="#EBEBEB"/>
<path d="M18.208 64.178V70.084C18.208 71.368 19.249 72.409 20.533 72.409H60.937C62.221 72.409 63.262 71.368 63.262 70.084V64.178H18.208Z" fill="#EBEBEB"/>
<path d="M21.712 72.4091L22.047 74.2891L59.328 76.9461L60.273 72.4091H21.712Z" fill="#E0E0E0"/>
<path d="M81.479 59.968C81.479 59.968 74.782 65.071 81.198 71.812C81.308 71.927 81.463 71.993 81.622 71.992L140.138 71.651C140.138 71.651 145.135 66.046 140.989 59.588L81.479 59.968Z" fill="#EBEBEB"/>
<path d="M127.206 65.2941C127.206 65.3591 119.919 65.4121 110.933 65.4121C101.944 65.4121 94.658 65.3591 94.658 65.2941C94.658 65.2291 101.943 65.1761 110.933 65.1761C119.919 65.1761 127.206 65.2291 127.206 65.2941Z" fill="#E0E0E0"/>
<path d="M118.104 67.411C118.104 67.476 114.678 67.529 110.453 67.529C106.227 67.529 102.802 67.476 102.802 67.411C102.802 67.346 106.227 67.293 110.453 67.293C114.678 67.293 118.104 67.346 118.104 67.411Z" fill="#E0E0E0"/>
<path d="M133.189 71.463C133.151 71.453 133.318 70.791 133.499 69.707C133.682 68.624 133.851 67.112 133.837 65.438C133.819 63.763 133.622 62.254 133.419 61.175C133.217 60.095 133.038 59.436 133.076 59.426C133.092 59.421 133.151 59.582 133.246 59.876C133.343 60.17 133.46 60.6021 133.583 61.1421C133.83 62.2201 134.056 63.743 134.074 65.436C134.088 67.129 133.89 68.655 133.664 69.738C133.552 70.28 133.443 70.715 133.351 71.01C133.261 71.306 133.205 71.468 133.189 71.463Z" fill="#E0E0E0"/>
<path d="M137.556 59.515C137.57 59.507 137.662 59.659 137.816 59.94C137.895 60.08 137.987 60.254 138.076 60.464C138.167 60.673 138.283 60.907 138.375 61.18C138.584 61.716 138.776 62.376 138.932 63.122C139.075 63.87 139.175 64.704 139.187 65.584C139.189 66.464 139.103 67.3 138.972 68.051C138.828 68.799 138.647 69.462 138.446 70.002C138.358 70.276 138.247 70.512 138.159 70.723C138.073 70.934 137.985 71.11 137.908 71.251C137.758 71.535 137.669 71.688 137.654 71.68C137.613 71.66 137.94 71.03 138.288 69.948C138.466 69.409 138.627 68.751 138.757 68.013C138.874 67.273 138.952 66.451 138.95 65.586C138.938 64.721 138.847 63.901 138.718 63.163C138.576 62.427 138.404 61.773 138.217 61.236C137.852 60.16 137.515 59.535 137.556 59.515Z" fill="#E0E0E0"/>
<path d="M90.712 71.541C90.698 71.55 90.602 71.41 90.439 71.15C90.355 71.021 90.259 70.859 90.166 70.662C90.071 70.466 89.949 70.248 89.853 69.989C89.635 69.483 89.438 68.855 89.282 68.143C89.141 67.428 89.049 66.628 89.055 65.786C89.071 64.944 89.185 64.146 89.345 63.435C89.52 62.727 89.733 62.104 89.965 61.605C90.067 61.349 90.195 61.134 90.296 60.941C90.395 60.746 90.495 60.587 90.582 60.461C90.752 60.205 90.851 60.068 90.865 60.077C90.905 60.102 90.528 60.667 90.119 61.671C89.91 62.171 89.717 62.788 89.558 63.484C89.412 64.184 89.308 64.964 89.292 65.79C89.286 66.615 89.369 67.398 89.496 68.102C89.637 68.802 89.813 69.424 90.008 69.929C90.391 70.942 90.752 71.518 90.712 71.541Z" fill="#E0E0E0"/>
<path d="M84.3929 72.969C84.3789 72.977 84.2729 72.82 84.0919 72.525C83.9989 72.379 83.8919 72.197 83.7859 71.976C83.6779 71.756 83.5419 71.51 83.4319 71.221C83.1829 70.654 82.9529 69.952 82.7619 69.156C82.5859 68.357 82.4589 67.462 82.4319 66.516C82.4159 65.57 82.5039 64.67 82.6439 63.863C82.7989 63.059 82.9979 62.347 83.2219 61.77C83.3189 61.476 83.4439 61.225 83.5419 61C83.6369 60.774 83.7369 60.587 83.8229 60.437C83.9909 60.135 84.0899 59.973 84.1039 59.98C84.1459 60.002 83.7719 60.668 83.3799 61.825C83.1789 62.401 82.9999 63.107 82.8589 63.9C82.7329 64.696 82.6529 65.58 82.6689 66.51C82.6949 67.439 82.8139 68.319 82.9749 69.108C83.1509 69.894 83.3609 70.591 83.5869 71.158C84.0309 72.296 84.4349 72.945 84.3929 72.969Z" fill="#E0E0E0"/>
<path d="M137.992 89.472C137.992 89.915 137.992 100.67 137.992 100.67H116.324V89.472H137.992Z" fill="#EBEBEB"/>
<path d="M68.0119 95.174C68.0159 95.273 68.0199 95.372 68.0249 95.471C68.2009 98.859 71.0779 101.48 74.4699 101.48H139.001V100.67H123.683C120.591 100.67 118.084 98.163 118.084 95.071C118.084 91.979 120.591 89.472 123.683 89.472H139.002V88.282L74.4519 88.5C70.8079 88.513 67.8789 91.533 68.0119 95.174Z" fill="#E0E0E0"/>
<path d="M137.992 95.22C137.992 95.285 133.537 95.3381 128.042 95.3381C122.545 95.3381 118.091 95.285 118.091 95.22C118.091 95.155 122.545 95.1021 128.042 95.1021C133.537 95.1021 137.992 95.155 137.992 95.22Z" fill="#E0E0E0"/>
<path d="M137.678 97.743C137.678 97.808 133.462 97.861 128.263 97.861C123.062 97.861 118.847 97.808 118.847 97.743C118.847 97.678 123.062 97.625 128.263 97.625C133.462 97.625 137.678 97.678 137.678 97.743Z" fill="#E0E0E0"/>
<path d="M137.992 100.051C137.992 100.116 134.202 100.169 129.527 100.169C124.851 100.169 121.062 100.116 121.062 100.051C121.062 99.986 124.851 99.933 129.527 99.933C134.201 99.933 137.992 99.986 137.992 100.051Z" fill="#E0E0E0"/>
<path d="M137.992 92.953C137.992 93.018 133.628 93.071 128.246 93.071C122.862 93.071 118.499 93.018 118.499 92.953C118.499 92.888 122.862 92.835 128.246 92.835C133.628 92.835 137.992 92.888 137.992 92.953Z" fill="#E0E0E0"/>
<path d="M137.678 90.6861C137.678 90.7511 133.794 90.8041 129.003 90.8041C124.211 90.8041 120.327 90.7511 120.327 90.6861C120.327 90.6211 124.211 90.5681 129.003 90.5681C133.794 90.5681 137.678 90.6211 137.678 90.6861Z" fill="#E0E0E0"/>
<path d="M75.8309 88.6881C75.8669 88.7241 75.2009 89.229 74.4599 90.318C73.7209 91.389 72.9669 93.126 72.9869 95.134C73.0129 97.142 73.8089 98.862 74.5729 99.914C75.3389 100.985 76.0169 101.474 75.9819 101.511C75.9739 101.521 75.8009 101.408 75.5159 101.167C75.2309 100.927 74.8449 100.544 74.4379 100.012C73.6239 98.965 72.7779 97.207 72.7509 95.136C72.7289 93.065 73.5339 91.288 74.3229 90.222C74.7169 89.681 75.0939 89.288 75.3739 89.042C75.6519 88.795 75.8219 88.6771 75.8309 88.6881Z" fill="#F5F5F5"/>
<path d="M73.6489 88.449C73.6849 88.485 73.0189 88.99 72.2779 90.079C71.5389 91.15 70.7849 92.887 70.8059 94.895C70.8319 96.904 71.6279 98.623 72.3919 99.676C73.1579 100.747 73.8359 101.236 73.8009 101.273C73.7929 101.283 73.6199 101.17 73.3349 100.929C73.0489 100.689 72.6639 100.306 72.2569 99.774C71.4429 98.727 70.5969 96.969 70.5699 94.898C70.5479 92.827 71.3529 91.05 72.1419 89.984C72.5359 89.443 72.9129 89.05 73.1919 88.804C73.4699 88.556 73.6399 88.438 73.6489 88.449Z" fill="#F5F5F5"/>
<path d="M117.496 88.6881C117.532 88.7241 116.866 89.229 116.125 90.318C115.386 91.389 114.631 93.126 114.652 95.134C114.678 97.142 115.474 98.862 116.238 99.914C117.004 100.985 117.682 101.474 117.647 101.511C117.639 101.521 117.466 101.408 117.181 101.167C116.895 100.927 116.51 100.544 116.103 100.012C115.289 98.965 114.443 97.207 114.416 95.136C114.394 93.065 115.199 91.288 115.988 90.222C116.382 89.681 116.759 89.288 117.038 89.042C117.318 88.795 117.488 88.6771 117.496 88.6881Z" fill="#F5F5F5"/>
<path d="M115.314 88.449C115.35 88.485 114.684 88.99 113.943 90.079C113.204 91.15 112.45 92.887 112.471 94.895C112.497 96.904 113.293 98.623 114.057 99.676C114.823 100.747 115.501 101.236 115.466 101.273C115.458 101.283 115.285 101.17 115 100.929C114.715 100.689 114.329 100.306 113.922 99.774C113.108 98.727 112.262 96.969 112.234 94.898C112.212 92.827 113.017 91.05 113.806 89.984C114.2 89.443 114.577 89.05 114.856 88.804C115.136 88.556 115.306 88.438 115.314 88.449Z" fill="#F5F5F5"/>
<path d="M83.174 96.749C83.154 95.231 83.133 93.714 83.113 92.196C83.108 91.799 83.1 91.392 82.953 91.023C82.805 90.655 82.484 90.328 82.089 90.294C81.519 90.042 80.63 90.517 80.232 91.174C79.834 91.831 79.79 92.637 79.784 93.405C79.775 94.606 79.834 95.807 79.959 97.002C80.018 97.57 80.099 98.153 80.382 98.649C80.666 99.144 81.202 99.536 81.771 99.484C82.335 99.432 82.788 98.958 82.988 98.428C83.187 97.897 83.182 97.315 83.174 96.749Z" fill="#F5F5F5"/>
<path d="M108.237 95.439C108.237 95.504 103.572 95.557 97.8179 95.557C92.0629 95.557 87.3989 95.504 87.3989 95.439C87.3989 95.374 92.0629 95.321 97.8179 95.321C103.572 95.321 108.237 95.374 108.237 95.439Z" fill="#F5F5F5"/>
<path d="M78.8519 88.24L78.7319 77.626H84.5099L84.7089 88.24H78.8519Z" fill="#F5F5F5"/>
<path d="M84.1689 79.5141C84.1689 79.5791 82.9669 79.6321 81.4839 79.6321C80.0009 79.6321 78.799 79.5791 78.799 79.5141C78.799 79.4491 80.0009 79.3961 81.4839 79.3961C82.9669 79.3961 84.1689 79.4491 84.1689 79.5141Z" fill="#E0E0E0"/>
<path d="M84.1689 81.153C84.1689 81.218 82.9669 81.271 81.4839 81.271C80.0009 81.271 78.799 81.218 78.799 81.153C78.799 81.088 80.0009 81.035 81.4839 81.035C82.9669 81.034 84.1689 81.087 84.1689 81.153Z" fill="#E0E0E0"/>
<path d="M84.1689 82.791C84.1689 82.856 82.9669 82.909 81.4839 82.909C80.0009 82.909 78.799 82.856 78.799 82.791C78.799 82.726 80.0009 82.673 81.4839 82.673C82.9669 82.673 84.1689 82.726 84.1689 82.791Z" fill="#E0E0E0"/>
<path d="M84.1689 84.429C84.1689 84.494 82.9669 84.547 81.4839 84.547C80.0009 84.547 78.799 84.494 78.799 84.429C78.799 84.364 80.0009 84.311 81.4839 84.311C82.9669 84.311 84.1689 84.364 84.1689 84.429Z" fill="#E0E0E0"/>
<path d="M84.1689 86.067C84.1689 86.132 82.9669 86.185 81.4839 86.185C80.0009 86.185 78.799 86.132 78.799 86.067C78.799 86.002 80.0009 85.949 81.4839 85.949C82.9669 85.949 84.1689 86.002 84.1689 86.067Z" fill="#E0E0E0"/>
<path d="M78.4259 77.345H142.462C143.252 80.86 143.141 84.728 142.462 88.818H78.6989V88.038H82.5949C83.6109 88.038 84.4349 87.214 84.4349 86.198V79.849C84.4349 78.833 83.6109 78.009 82.5949 78.009H78.4259V77.345Z" fill="#EBEBEB"/>
<path d="M93.5639 83.088H94.6319C94.6719 83.088 94.7109 83.098 94.7469 83.117C94.8229 83.161 94.8619 83.228 94.8619 83.318C94.8619 83.345 94.8589 83.368 94.8539 83.387C94.8329 83.477 94.8089 83.568 94.7819 83.66C94.6329 84.148 94.4099 84.552 94.1129 84.869C93.8179 85.183 93.5149 85.34 93.2019 85.34C93.1599 85.34 93.1169 85.337 93.0729 85.332C92.7819 85.288 92.5389 85.113 92.3459 84.806C92.1329 84.463 92.0269 84.034 92.0269 83.52C92.0269 83.217 92.0689 82.912 92.1539 82.604C92.2899 82.106 92.5019 81.693 92.7889 81.366C93.0899 81.025 93.4099 80.855 93.7509 80.855C93.8949 80.855 94.0289 80.886 94.1559 80.947C94.4319 81.083 94.6399 81.343 94.7799 81.727C94.7969 81.762 94.8049 81.797 94.8049 81.833C94.8049 81.873 94.7949 81.911 94.7739 81.948C94.7279 82.024 94.6619 82.062 94.5759 82.062C94.5529 82.062 94.5289 82.058 94.5039 82.051C94.4289 82.026 94.3799 81.978 94.3569 81.907L94.3449 81.887C94.3099 81.793 94.2679 81.709 94.2159 81.634C94.0759 81.431 93.9059 81.329 93.7049 81.329C93.5879 81.329 93.4699 81.372 93.3519 81.458C93.1279 81.619 92.9329 81.898 92.7689 82.296C92.5999 82.706 92.5159 83.107 92.5159 83.502C92.5159 83.881 92.5779 84.196 92.6999 84.449C92.8359 84.728 93.0219 84.868 93.2569 84.868C93.4159 84.866 93.5879 84.762 93.7739 84.556C94.0019 84.301 94.1849 83.97 94.3229 83.564C93.8309 83.564 93.5749 83.561 93.5559 83.555C93.3889 83.528 93.3039 83.442 93.2999 83.297C93.3029 83.268 93.3119 83.243 93.3229 83.22C93.3649 83.131 93.4459 83.088 93.5639 83.088Z" fill="#FAFAFA"/>
<path d="M97.1999 81.0031C97.2089 81.0241 97.2189 81.05 97.2289 81.08C97.2739 81.237 97.5249 82.5601 97.9829 85.048C97.9899 85.067 97.9939 85.086 97.9939 85.105C97.9939 85.145 97.9839 85.184 97.9629 85.222C97.9169 85.3 97.8539 85.34 97.7719 85.34C97.7609 85.34 97.7489 85.3391 97.7349 85.3371C97.6439 85.3221 97.5849 85.269 97.5579 85.179L97.3029 83.86H95.9879L95.3559 85.183C95.3509 85.197 95.3439 85.2121 95.3349 85.2271C95.2749 85.3021 95.2089 85.3391 95.1369 85.3391C95.0919 85.3391 95.0509 85.327 95.0119 85.302C94.9419 85.254 94.9069 85.19 94.9069 85.109C94.9069 85.087 94.9119 85.064 94.9219 85.04C94.9609 84.948 95.0269 84.803 95.1179 84.605C96.0379 82.595 96.5889 81.4091 96.7689 81.0471C96.8209 80.9421 96.8949 80.888 96.9909 80.886C97.0819 80.89 97.1519 80.9281 97.1999 81.0031ZM96.9129 81.89L96.2009 83.387H97.2059L96.9129 81.89Z" fill="#FAFAFA"/>
<path d="M100.772 85.34H98.8419C98.7979 85.34 98.7569 85.328 98.7179 85.303C98.6619 85.263 98.6259 85.182 98.6089 85.061V85.058C98.6089 84.979 98.7869 83.662 99.1419 81.107C99.1439 81.078 99.1479 81.049 99.1539 81.022C99.1939 80.928 99.2629 80.881 99.3609 80.881C99.3989 80.881 99.4349 80.89 99.4669 80.907C99.5479 80.949 99.5879 81.017 99.5879 81.111C99.5709 81.285 99.5269 81.646 99.4569 82.194C99.2359 83.881 99.1209 84.772 99.1109 84.865H100.751C100.795 84.865 100.837 84.873 100.875 84.888C100.973 84.928 101.022 85 101.022 85.103C101.022 85.128 101.018 85.153 101.01 85.178C100.977 85.268 100.898 85.321 100.772 85.34Z" fill="#FAFAFA"/>
<path d="M103.411 81.0031C103.42 81.0241 103.43 81.05 103.44 81.08C103.485 81.237 103.737 82.5601 104.194 85.048C104.201 85.067 104.205 85.086 104.205 85.105C104.205 85.145 104.195 85.184 104.174 85.222C104.128 85.3 104.065 85.34 103.983 85.34C103.972 85.34 103.96 85.3391 103.946 85.3371C103.855 85.3221 103.796 85.269 103.769 85.179L103.514 83.86H102.199L101.566 85.183C101.561 85.197 101.554 85.2121 101.545 85.2271C101.485 85.3021 101.419 85.3391 101.347 85.3391C101.302 85.3391 101.261 85.327 101.222 85.302C101.152 85.254 101.117 85.19 101.117 85.109C101.117 85.087 101.122 85.064 101.132 85.04C101.171 84.948 101.237 84.803 101.328 84.605C102.249 82.595 102.799 81.4091 102.979 81.0471C103.031 80.9421 103.105 80.888 103.201 80.886C103.292 80.89 103.362 80.9281 103.411 81.0031ZM103.124 81.89L102.412 83.387H103.417L103.124 81.89Z" fill="#FAFAFA"/>
<path d="M106.486 83.28C106.636 83.698 106.753 84.02 106.835 84.247C107.034 84.797 107.134 85.087 107.134 85.118C107.134 85.16 107.121 85.199 107.097 85.235C107.051 85.305 106.987 85.34 106.904 85.34C106.818 85.338 106.755 85.286 106.713 85.185C106.698 85.144 106.686 85.111 106.677 85.087C106.572 84.847 106.4 84.393 106.161 83.726L105.069 85.218C105.008 85.297 104.941 85.337 104.865 85.339C104.824 85.339 104.784 85.328 104.746 85.307C104.673 85.263 104.637 85.199 104.637 85.114C104.637 85.095 104.638 85.079 104.64 85.065C104.646 85.03 104.684 84.968 104.755 84.878C105.121 84.405 105.525 83.842 105.968 83.188C105.921 83.06 105.878 82.938 105.835 82.824C105.424 81.723 105.219 81.154 105.219 81.118C105.219 81.076 105.229 81.037 105.248 81C105.29 80.924 105.352 80.885 105.435 80.885C105.535 80.887 105.607 80.93 105.65 81.013L106.294 82.75L107.581 80.997C107.636 80.926 107.705 80.89 107.786 80.888C107.824 80.888 107.859 80.896 107.891 80.914C107.965 80.956 108.003 81.024 108.003 81.119C108.003 81.151 107.995 81.187 107.98 81.225L106.486 83.28Z" fill="#FAFAFA"/>
<path d="M111.262 80.902C111.298 80.902 111.334 80.91 111.368 80.928C111.445 80.97 111.486 81.036 111.492 81.126C111.176 83.622 111.002 84.97 110.969 85.171C110.896 85.596 110.758 85.947 110.555 86.225C110.247 86.645 109.82 86.854 109.274 86.854C109.098 86.854 108.892 86.799 108.656 86.69C108.327 86.537 108.1 86.338 107.975 86.093C107.958 86.058 107.949 86.021 107.949 85.981C107.949 85.941 107.96 85.903 107.981 85.866C108.027 85.789 108.093 85.751 108.179 85.751C108.248 85.753 108.307 85.784 108.354 85.846C108.639 86.219 108.969 86.407 109.342 86.409C109.638 86.407 109.894 86.277 110.109 86.02C110.352 85.724 110.494 85.32 110.534 84.807C110.459 84.923 110.364 85.024 110.249 85.109C110.04 85.26 109.809 85.335 109.557 85.335C109.515 85.335 109.472 85.332 109.427 85.327C109.132 85.285 108.888 85.11 108.695 84.801C108.481 84.459 108.373 84.03 108.373 83.515C108.373 83.281 108.384 83.04 108.405 82.791C108.441 82.4 108.528 81.846 108.666 81.128C108.67 81.105 108.677 81.083 108.686 81.062C108.726 80.957 108.795 80.904 108.893 80.904C108.931 80.904 108.969 80.914 109.005 80.935C109.082 80.979 109.12 81.04 109.12 81.119C109.12 81.238 109.084 81.531 109.014 81.999C108.912 82.688 108.862 83.136 108.862 83.345C108.862 83.773 108.919 84.122 109.034 84.392C109.166 84.706 109.357 84.863 109.606 84.863C109.631 84.863 109.657 84.86 109.684 84.854C109.872 84.816 110.064 84.662 110.261 84.392C110.487 84.082 110.646 83.728 110.738 83.328L111.031 81.128C111.035 81.094 111.044 81.061 111.06 81.031C111.103 80.944 111.17 80.902 111.262 80.902Z" fill="#FAFAFA"/>
<path d="M140.057 88.967C139.992 88.967 139.939 86.332 139.939 83.082C139.939 79.831 139.992 77.196 140.057 77.196C140.122 77.196 140.175 79.831 140.175 83.082C140.175 86.331 140.122 88.967 140.057 88.967Z" fill="#F5F5F5"/>
<path d="M87.6558 88.967C87.5908 88.967 87.5378 86.332 87.5378 83.082C87.5378 79.831 87.5908 77.196 87.6558 77.196C87.7208 77.196 87.7738 79.831 87.7738 83.082C87.7738 86.331 87.7208 88.967 87.6558 88.967Z" fill="#E0E0E0"/>
<path d="M141.18 88.967C141.115 88.967 141.062 86.332 141.062 83.082C141.062 79.831 141.115 77.196 141.18 77.196C141.245 77.196 141.298 79.831 141.298 83.082C141.298 86.331 141.246 88.967 141.18 88.967Z" fill="#F5F5F5"/>
<path d="M86.6059 88.967C86.5409 88.967 86.4879 86.332 86.4879 83.082C86.4879 79.831 86.5409 77.196 86.6059 77.196C86.6709 77.196 86.7239 79.831 86.7239 83.082C86.7239 86.331 86.6709 88.967 86.6059 88.967Z" fill="#E0E0E0"/>
<path d="M124.53 79.135L124.52 79.1151C126.269 80.5261 128.645 82.4431 131.288 84.5751L131.348 84.623L131.274 84.6431C130.988 84.7181 130.682 84.7991 130.373 84.8801C128.317 85.4191 126.371 85.9301 124.659 86.3801L124.647 86.383L124.636 86.3781C122.512 85.4781 120.721 84.718 119.457 84.182C118.83 83.913 118.334 83.701 117.991 83.554C117.824 83.481 117.695 83.425 117.604 83.385C117.562 83.366 117.53 83.352 117.505 83.34C117.483 83.33 117.472 83.3231 117.472 83.3231C117.472 83.3231 117.484 83.326 117.507 83.335C117.533 83.345 117.566 83.358 117.608 83.375C117.7 83.412 117.831 83.465 117.999 83.534C118.344 83.677 118.842 83.8831 119.473 84.1441C120.74 84.6741 122.535 85.425 124.663 86.314L124.64 86.313C126.352 85.861 128.297 85.348 130.352 84.806C130.661 84.725 130.967 84.645 131.253 84.569L131.239 84.637C128.601 82.498 126.23 80.575 124.485 79.159L124.475 79.151L124.474 79.138" fill="#E0E0E0"/>
<path d="M130.676 83.7251L131.045 84.0721L131.54 83.9651L131.324 84.4231L131.578 84.8611L131.076 84.7971L130.738 85.1751L130.644 84.6771L130.18 84.4721L130.624 84.2291L130.676 83.7251Z" fill="#E0E0E0"/>
<path d="M124.183 85.877L124.436 86.086L124.751 85.998L124.63 86.302L124.811 86.5751L124.484 86.554L124.281 86.8111L124.2 86.493L123.893 86.3791L124.17 86.204L124.183 85.877Z" fill="#E0E0E0"/>
<path d="M117.013 82.9341L117.414 82.9591L117.663 82.6431L117.763 83.0331L118.141 83.1711L117.801 83.3871L117.786 83.7891L117.476 83.5331L117.089 83.6431L117.237 83.2681L117.013 82.9341Z" fill="#E0E0E0"/>
<path d="M133.71 79.221L134.112 79.246L134.36 78.929L134.46 79.319L134.838 79.458L134.498 79.673L134.484 80.0751L134.173 79.819L133.786 79.929L133.934 79.555L133.71 79.221Z" fill="#E0E0E0"/>
<path d="M124.202 78.9571L124.458 78.9731L124.617 78.7711L124.68 79.0191L124.922 79.1081L124.705 79.2461L124.695 79.5021L124.497 79.3381L124.25 79.4091L124.345 79.1701L124.202 78.9571Z" fill="#E0E0E0"/>
<path d="M134.274 79.502C134.273 79.528 132.083 79.456 129.384 79.34C126.684 79.224 124.497 79.11 124.498 79.084C124.499 79.058 126.688 79.13 129.388 79.246C132.088 79.361 134.275 79.476 134.274 79.502Z" fill="#E0E0E0"/>
<path d="M136.733 77.245H71.787C70.936 75.315 70.728 73.4821 71.787 71.8391H136.733C137.585 73.8061 137.513 75.595 136.733 77.245Z" fill="#E0E0E0"/>
<path d="M120.421 73.384H85.236V75.351H120.421V73.384Z" fill="#EBEBEB"/>
<path d="M74.28 77.275C74.26 77.292 74.028 77.069 73.767 76.621C73.506 76.177 73.245 75.493 73.174 74.702C73.106 73.911 73.243 73.192 73.423 72.709C73.602 72.223 73.792 71.9631 73.814 71.9761C73.849 71.9941 73.714 72.278 73.583 72.759C73.45 73.239 73.345 73.925 73.41 74.681C73.478 75.436 73.701 76.094 73.916 76.543C74.129 76.994 74.312 77.251 74.28 77.275Z" fill="#E0E0E0"/>
<path d="M75.686 77.275C75.666 77.292 75.434 77.069 75.173 76.621C74.912 76.177 74.651 75.493 74.58 74.702C74.512 73.911 74.649 73.192 74.829 72.709C75.007 72.223 75.198 71.9631 75.22 71.9761C75.255 71.9941 75.12 72.278 74.989 72.759C74.856 73.239 74.751 73.925 74.816 74.681C74.884 75.436 75.107 76.094 75.322 76.543C75.535 76.994 75.717 77.251 75.686 77.275Z" fill="#E0E0E0"/>
<path d="M134.106 77.148C134.034 77.123 134.565 75.997 134.563 74.505C134.582 73.013 134.064 71.881 134.137 71.857C134.179 71.819 134.817 72.951 134.8 74.507C134.798 76.062 134.148 77.187 134.106 77.148Z" fill="#F5F5F5"/>
<path d="M132.897 77.1351C132.826 77.1191 133.099 75.9781 133.092 74.5461C133.096 73.1141 132.819 71.974 132.89 71.958C132.944 71.937 133.331 73.0771 133.328 74.5461C133.335 76.0151 132.951 77.1561 132.897 77.1351Z" fill="#F5F5F5"/>
</g>
<g style="mix-blend-mode:luminosity">
<path d="M315.899 111.356H250.195V179.847H315.899V111.356Z" fill="#E0E0E0"/>
<path d="M311.45 111.356H245.746V179.847H311.45V111.356Z" fill="#FAFAFA"/>
<path d="M311.47 179.867H245.725V111.336H311.47V179.867ZM245.766 179.826H311.429V111.376H245.766V179.826Z" fill="#E0E0E0"/>
<path d="M302.617 120.563H254.578V170.639H302.617V120.563Z" fill="white"/>
<path d="M254.578 170.973C254.616 171.018 254.16 171.542 253.393 172.351C252.626 173.161 251.548 174.256 250.339 175.447C249.13 176.638 248.019 177.698 247.201 178.451C246.382 179.204 245.854 179.649 245.813 179.608C245.772 179.566 246.225 179.045 246.992 178.235C247.759 177.426 248.84 176.327 250.053 175.133C251.265 173.939 252.378 172.876 253.197 172.123C254.015 171.37 254.54 170.928 254.578 170.973Z" fill="#E0E0E0"/>
<path d="M302.617 170.85C302.662 170.812 303.186 171.268 303.995 172.035C304.805 172.802 305.9 173.88 307.091 175.089C308.282 176.298 309.342 177.409 310.095 178.227C310.848 179.046 311.293 179.574 311.251 179.615C311.209 179.656 310.688 179.203 309.878 178.436C309.068 177.669 307.97 176.588 306.776 175.375C305.583 174.163 304.52 173.05 303.767 172.231C303.015 171.413 302.572 170.888 302.617 170.85Z" fill="#E0E0E0"/>
<path d="M302.486 120.697C302.448 120.652 302.904 120.128 303.672 119.319C304.439 118.509 305.517 117.414 306.726 116.223C307.934 115.032 309.045 113.972 309.864 113.219C310.683 112.466 311.211 112.021 311.252 112.063C311.293 112.105 310.84 112.626 310.073 113.435C309.306 114.244 308.225 115.343 307.012 116.537C305.8 117.731 304.687 118.794 303.868 119.547C303.049 120.299 302.524 120.742 302.486 120.697Z" fill="#E0E0E0"/>
<path d="M254.447 120.82C254.402 120.858 253.878 120.402 253.069 119.635C252.259 118.868 251.164 117.79 249.973 116.581C248.782 115.372 247.722 114.262 246.969 113.443C246.216 112.624 245.771 112.096 245.813 112.055C245.855 112.013 246.376 112.467 247.185 113.234C247.995 114.001 249.093 115.082 250.287 116.295C251.481 117.507 252.544 118.62 253.297 119.439C254.049 120.257 254.492 120.782 254.447 120.82Z" fill="#E0E0E0"/>
<path d="M302.486 170.64C302.482 170.637 302.479 170.555 302.476 170.397C302.473 170.226 302.47 169.996 302.465 169.698C302.46 169.07 302.453 168.167 302.443 166.995C302.432 164.623 302.415 161.171 302.394 156.789C302.371 148.019 302.339 135.524 302.3 120.564L302.485 120.749C288.5 120.757 272.077 120.766 254.582 120.777H254.577L254.79 120.564C254.779 138.944 254.769 156.139 254.76 170.64L254.577 170.458C268.933 170.496 280.885 170.529 289.265 170.551C293.452 170.572 296.745 170.588 299.008 170.599C300.126 170.608 300.987 170.615 301.586 170.62C301.869 170.624 302.089 170.628 302.252 170.63C302.404 170.633 302.482 170.636 302.486 170.64C302.49 170.643 302.418 170.647 302.274 170.65C302.115 170.653 301.903 170.656 301.628 170.66C301.037 170.665 300.188 170.672 299.085 170.681C296.831 170.692 293.552 170.708 289.383 170.729C280.975 170.752 268.982 170.784 254.579 170.822L254.397 170.823V170.64C254.388 156.139 254.378 138.944 254.367 120.564V120.351H254.58H254.585C272.08 120.361 288.503 120.37 302.488 120.378H302.674V120.563C302.635 135.572 302.602 148.107 302.58 156.907C302.559 161.272 302.543 164.709 302.531 167.071C302.522 168.228 302.514 169.119 302.509 169.739C302.504 170.029 302.501 170.252 302.499 170.418C302.493 170.568 302.489 170.643 302.486 170.64Z" fill="#E0E0E0"/>
<path d="M286.613 137.586H270.583V153.616H286.613V137.586Z" fill="#EBEBEB"/>
</g>
<g style="mix-blend-mode:luminosity">
<path d="M253.673 0.0200195H187.969V68.511H253.673V0.0200195Z" fill="#E0E0E0"/>
<path d="M249.224 0.0200195H183.52V68.511H249.224V0.0200195Z" fill="#FAFAFA"/>
<path d="M249.244 68.531H183.5V0H249.244V68.531ZM183.54 68.49H249.203V0.0400009H183.54V68.49Z" fill="#E0E0E0"/>
<path d="M240.391 9.22699H192.352V59.303H240.391V9.22699Z" fill="white"/>
<path d="M192.352 59.637C192.39 59.682 191.934 60.206 191.167 61.015C190.4 61.825 189.322 62.92 188.113 64.111C186.904 65.302 185.794 66.362 184.975 67.115C184.156 67.868 183.628 68.313 183.586 68.271C183.545 68.229 183.998 67.708 184.765 66.898C185.532 66.089 186.613 64.99 187.825 63.796C189.037 62.602 190.15 61.539 190.969 60.787C191.789 60.034 192.314 59.592 192.352 59.637Z" fill="#E0E0E0"/>
<path d="M240.391 59.514C240.436 59.476 240.96 59.932 241.769 60.699C242.579 61.466 243.674 62.544 244.865 63.753C246.056 64.962 247.116 66.073 247.869 66.891C248.622 67.71 249.067 68.238 249.025 68.279C248.983 68.32 248.462 67.867 247.652 67.1C246.843 66.333 245.744 65.252 244.55 64.039C243.357 62.827 242.294 61.714 241.541 60.895C240.789 60.077 240.346 59.552 240.391 59.514Z" fill="#E0E0E0"/>
<path d="M240.26 9.36097C240.222 9.31597 240.678 8.79197 241.446 7.98297C242.213 7.17297 243.291 6.07797 244.5 4.88697C245.709 3.69597 246.819 2.63597 247.638 1.88297C248.457 1.12997 248.985 0.684974 249.026 0.726974C249.067 0.768974 248.614 1.28997 247.847 2.09897C247.08 2.90797 245.999 4.00697 244.787 5.20097C243.575 6.39497 242.462 7.45797 241.643 8.21097C240.823 8.96297 240.298 9.40597 240.26 9.36097Z" fill="#E0E0E0"/>
<path d="M192.221 9.48399C192.176 9.52199 191.652 9.06599 190.843 8.29899C190.033 7.53199 188.938 6.45399 187.747 5.24499C186.556 4.03599 185.496 2.92599 184.743 2.10699C183.99 1.28799 183.545 0.75999 183.587 0.71899C183.629 0.67699 184.15 1.13099 184.959 1.89799C185.769 2.66499 186.867 3.74599 188.061 4.95899C189.255 6.17099 190.318 7.28399 191.07 8.10299C191.823 8.92099 192.265 9.44599 192.221 9.48399Z" fill="#E0E0E0"/>
<path d="M240.26 59.304C240.257 59.301 240.253 59.219 240.25 59.061C240.247 58.89 240.244 58.66 240.239 58.362C240.234 57.734 240.227 56.831 240.217 55.659C240.206 53.287 240.189 49.835 240.168 45.453C240.145 36.682 240.113 24.188 240.074 9.22798L240.259 9.41298C226.274 9.42098 209.851 9.42998 192.356 9.44098H192.351L192.564 9.22798C192.553 27.608 192.543 44.803 192.534 59.304L192.351 59.122C206.707 59.16 218.659 59.193 227.039 59.215C231.226 59.236 234.519 59.252 236.783 59.263C237.901 59.272 238.762 59.279 239.361 59.284C239.645 59.288 239.864 59.292 240.027 59.294C240.178 59.297 240.256 59.3 240.26 59.304C240.264 59.307 240.192 59.311 240.048 59.314C239.889 59.317 239.677 59.32 239.401 59.324C238.81 59.329 237.961 59.336 236.858 59.345C234.605 59.356 231.325 59.372 227.156 59.393C218.748 59.415 206.755 59.448 192.352 59.486H192.17V59.303C192.161 44.802 192.151 27.607 192.14 9.22698V9.01398H192.353H192.358C209.853 9.02398 226.276 9.03298 240.261 9.04098H240.447V9.22598C240.408 24.235 240.376 36.771 240.353 45.57C240.332 49.935 240.315 53.372 240.304 55.734C240.295 56.891 240.288 57.782 240.282 58.402C240.278 58.691 240.274 58.915 240.272 59.081C240.267 59.232 240.263 59.307 240.26 59.304Z" fill="#E0E0E0"/>
<path d="M224.387 26.25H208.357V42.28H224.387V26.25Z" fill="#EBEBEB"/>
</g>
<g style="mix-blend-mode:luminosity">
<path d="M15.988 473.649C15.988 473.649 0.711003 394.498 0.676003 378.217C0.628003 355.684 17.877 346.713 17.877 346.713L11.175 327.599H48.041L42.22 346.579C42.22 346.579 61.632 356.869 58.924 380.242C53.862 423.938 45.795 473.649 45.795 473.649H15.988Z" fill="#E0E0E0"/>
<path d="M51.149 355.688C51.147 355.697 51.008 355.686 50.738 355.657C50.469 355.629 50.065 355.595 49.537 355.603C48.487 355.609 46.905 355.792 45.061 356.585C43.216 357.359 41.162 358.798 39.318 360.972C38.391 362.052 37.514 363.303 36.68 364.688C35.854 366.077 35.024 367.581 34.362 369.242C33.709 370.898 33.223 372.74 33.288 374.677C33.349 376.591 34.069 378.597 35.472 380.111C36.182 380.85 37.066 381.458 38.08 381.749C39.087 382.045 40.194 382.023 41.222 381.666C43.276 380.937 44.966 379.09 45.639 376.891C46.373 374.676 45.632 372.141 44.097 370.279C42.56 368.394 40.258 367.084 37.775 366.615C35.269 366.176 32.612 366.58 30.154 367.532C27.69 368.489 25.369 369.934 23.309 371.708C19.188 375.257 16.232 380.027 15.251 385.066C14.758 387.574 14.766 390.148 15.4 392.526C15.961 394.912 17.226 397.086 19.033 398.552C19.93 399.281 20.981 399.805 22.086 399.953C23.186 400.129 24.317 399.889 25.232 399.332C27.093 398.188 28.006 395.965 28.045 393.932C28.068 392.903 27.874 391.886 27.457 390.99C27.039 390.098 26.406 389.316 25.696 388.676C24.254 387.391 22.46 386.688 20.723 386.362C17.198 385.705 13.906 386.644 11.43 387.971C8.91901 389.315 7.14701 391.098 5.95001 392.693C4.73901 394.295 4.09701 395.739 3.73501 396.728C3.36701 397.719 3.24501 398.267 3.21301 398.258C3.21301 398.258 3.29601 397.702 3.63501 396.692C3.96801 395.684 4.58501 394.211 5.78501 392.57C6.97201 390.937 8.74701 389.105 11.29 387.711C13.796 386.336 17.156 385.342 20.791 385.993C22.581 386.318 24.446 387.03 25.968 388.37C26.72 389.042 27.384 389.848 27.842 390.809C28.293 391.768 28.503 392.85 28.484 393.939C28.447 396.088 27.513 398.452 25.474 399.727C24.467 400.345 23.219 400.61 22.021 400.423C20.812 400.264 19.681 399.699 18.73 398.931C16.819 397.391 15.499 395.113 14.913 392.65C14.253 390.196 14.241 387.542 14.745 384.967C15.748 379.79 18.762 374.93 22.967 371.306C25.073 369.493 27.434 368.023 29.968 367.04C32.496 366.065 35.245 365.642 37.87 366.105C40.475 366.601 42.871 367.969 44.49 369.959C45.295 370.954 45.899 372.106 46.204 373.33C46.531 374.547 46.47 375.86 46.107 377.031C45.377 379.377 43.596 381.321 41.375 382.105C40.264 382.487 39.047 382.51 37.952 382.181C36.853 381.861 35.905 381.2 35.154 380.41C33.672 378.794 32.936 376.695 32.881 374.689C32.825 372.674 33.341 370.785 34.016 369.103C34.701 367.416 35.549 365.908 36.393 364.514C37.246 363.123 38.145 361.865 39.095 360.78C40.985 358.595 43.096 357.152 44.982 356.397C46.867 355.621 48.477 355.469 49.538 355.498C50.606 355.529 51.149 355.688 51.149 355.688Z" fill="#FAFAFA"/>
<path d="M52.106 415.472C52.106 415.472 52.298 416.928 51.768 419.496C51.494 420.771 51.018 422.315 50.151 423.964C49.297 425.61 48.055 427.378 46.288 428.931C44.54 430.496 42.23 431.798 39.543 432.474C36.871 433.151 33.805 433.247 30.807 432.347C27.814 431.468 24.961 429.535 22.939 426.801C20.906 424.102 19.63 420.578 19.919 416.945C20.084 415.156 20.716 413.313 22.098 412.092C23.468 410.84 25.481 410.601 27.128 411.097C28.795 411.576 30.256 412.704 31.021 414.217C31.782 415.721 31.877 417.446 31.532 418.981C31.187 420.525 30.432 421.921 29.422 423.023C28.408 424.126 27.16 424.914 25.885 425.46C23.31 426.54 20.647 426.701 18.329 426.413C15.994 426.134 13.965 425.412 12.314 424.563C10.652 423.723 9.37202 422.736 8.40702 421.859C6.48402 420.077 5.80103 418.775 5.80103 418.775C5.80803 418.77 5.86903 418.837 5.98103 418.972C6.10903 419.133 6.26802 419.333 6.46402 419.579C6.91602 420.088 7.56003 420.865 8.54403 421.705C9.51903 422.548 10.799 423.496 12.447 424.298C14.083 425.109 16.085 425.791 18.371 426.041C20.642 426.301 23.238 426.116 25.712 425.057C26.936 424.523 28.127 423.759 29.08 422.709C30.029 421.663 30.739 420.334 31.057 418.877C31.376 417.428 31.275 415.824 30.572 414.445C29.878 413.078 28.525 412.032 26.987 411.596C25.459 411.145 23.668 411.371 22.447 412.487C21.206 413.58 20.601 415.29 20.445 416.996C20.168 420.459 21.391 423.881 23.354 426.492C25.307 429.144 28.056 431.018 30.947 431.881C33.845 432.767 36.829 432.692 39.436 432.05C42.059 431.409 44.318 430.161 46.042 428.65C47.784 427.15 49.025 425.433 49.889 423.826C50.766 422.217 51.265 420.704 51.566 419.451C51.88 418.196 51.953 417.189 52.029 416.512C52.046 416.197 52.061 415.942 52.072 415.737C52.086 415.562 52.097 415.473 52.106 415.472Z" fill="#FAFAFA"/>
<path d="M45.2369 452.774C45.1889 452.876 43.5859 452.01 40.7959 451.202C40.0969 451.005 39.3319 450.795 38.4899 450.651C37.6589 450.458 36.7509 450.367 35.8019 450.243C33.8949 450.072 31.783 450.043 29.583 450.274C27.386 450.533 25.3319 451.026 23.5089 451.614C22.6099 451.944 21.7449 452.232 20.9759 452.604C20.1869 452.929 19.486 453.303 18.848 453.649C16.304 455.051 14.932 456.249 14.862 456.16C14.839 456.132 15.174 455.829 15.804 455.302C16.115 455.032 16.5059 454.717 16.9959 454.398C17.4799 454.073 18.0129 453.669 18.6629 453.324C19.2979 452.952 19.9999 452.553 20.7939 452.205C21.5669 451.81 22.4399 451.501 23.3509 451.153C25.1969 450.53 27.2869 450.013 29.5239 449.749C31.7639 449.514 33.9159 449.558 35.8529 449.759C36.8179 449.898 37.7369 450.007 38.5789 450.222C39.4299 450.387 40.2019 450.621 40.9039 450.844C41.6149 451.038 42.2229 451.314 42.7669 451.525C43.3139 451.729 43.7659 451.95 44.1279 452.144C44.8599 452.52 45.2539 452.742 45.2369 452.774Z" fill="#FAFAFA"/>
<path d="M42.665 347.708C42.685 347.739 42.25 348.041 41.446 348.562C40.647 349.091 39.449 349.792 37.935 350.595C34.912 352.207 30.538 354.106 25.476 355.471C20.409 356.824 15.672 357.369 12.248 357.487C10.535 357.549 9.14701 357.542 8.19101 357.484C7.23401 357.436 6.70701 357.392 6.70801 357.355C6.70901 357.319 7.23901 357.293 8.19301 357.278C9.14701 357.273 10.528 357.223 12.228 357.113C15.627 356.901 20.314 356.301 25.339 354.96C30.358 353.606 34.715 351.78 37.765 350.262C39.291 349.506 40.512 348.858 41.341 348.385C42.175 347.921 42.646 347.678 42.665 347.708Z" fill="#FAFAFA"/>
<path d="M47.308 328.506C47.302 328.56 46.401 328.422 44.768 328.42C43.142 328.428 40.757 328.607 37.99 329.526C36.611 329.981 35.143 330.62 33.678 331.495C32.946 331.934 32.217 332.431 31.506 332.996C30.789 333.558 30.096 334.172 29.521 334.924C28.943 335.662 28.464 336.53 28.307 337.47C28.141 338.404 28.443 339.408 29.159 340.085C29.863 340.778 30.863 341.172 31.885 341.461C32.914 341.724 34.014 342.052 35.008 341.82C36.02 341.594 36.605 340.604 36.687 339.588C36.793 338.554 36.519 337.538 36.069 336.618C35.185 334.76 33.623 333.378 31.96 332.488C30.289 331.579 28.481 331.163 26.795 331.088C25.102 331.046 23.52 331.338 22.142 331.777C19.371 332.667 17.389 334.029 16.07 334.975C15.416 335.464 14.92 335.862 14.587 336.135C14.255 336.41 14.074 336.548 14.062 336.535C14.05 336.522 14.206 336.357 14.517 336.055C14.829 335.755 15.306 335.33 15.946 334.812C17.237 333.809 19.208 332.38 22.027 331.422C23.432 330.95 25.048 330.626 26.808 330.65C28.56 330.709 30.439 331.123 32.19 332.058C33.93 332.974 35.587 334.417 36.536 336.392C37.014 337.358 37.331 338.488 37.211 339.641C37.143 340.211 36.993 340.804 36.633 341.305C36.289 341.812 35.737 342.189 35.137 342.333C33.912 342.602 32.798 342.229 31.743 341.967C30.687 341.663 29.61 341.253 28.796 340.453C27.967 339.672 27.609 338.455 27.81 337.391C27.996 336.322 28.525 335.4 29.139 334.623C29.749 333.835 30.489 333.192 31.221 332.629C31.954 332.058 32.705 331.556 33.456 331.116C34.962 330.239 36.466 329.608 37.877 329.168C40.707 328.28 43.132 328.157 44.772 328.213C45.595 328.246 46.233 328.306 46.66 328.378C47.087 328.445 47.31 328.488 47.308 328.506Z" fill="#FAFAFA"/>
</g>
</svg>
